<?xml version="1.0" encoding="utf-8"?>
<!-- Generator: Adobe Illustrator 18.1.1, SVG Export Plug-In . SVG Version: 6.00 Build 0)  -->
<!DOCTYPE svg PUBLIC "-//W3C//DTD SVG 1.1//EN" "http://www.w3.org/Graphics/SVG/1.1/DTD/svg11.dtd">
<svg version="1.1" id="Layer_1" xmlns="http://www.w3.org/2000/svg" xmlns:xlink="http://www.w3.org/1999/xlink" x="0px" y="0px"
	 viewBox="0 0 88.9 104.8" enable-background="new 0 0 88.9 104.8" xml:space="preserve">
<linearGradient id="SVGID_1_" gradientUnits="userSpaceOnUse" x1="-221.3225" y1="300.2859" x2="-207.7635" y2="300.2859" gradientTransform="matrix(0.7755 0.4449 -0.237 0.9863 246.3192 -135.2986)">
	<stop  offset="0" style="stop-color:#404041"/>
	<stop  offset="1" style="stop-color:#000000"/>
</linearGradient>
<path fill="url(#SVGID_1_)" d="M14.2,67.1c1.2-2.6,0.6-6.1-1.5-7.4c-1-0.6-2-0.6-2.9,0c-0.3-1.3-0.9-2.4-1.8-2.9
	c-1.7-1.1-3.4,0.4-4,3c-0.2,1.2-0.2,2.4,0.1,3.4c0.5,3.9,2,9,2,9s3.8-1,6.4-3C13.2,68.8,13.8,68.1,14.2,67.1z"/>
<linearGradient id="SVGID_2_" gradientUnits="userSpaceOnUse" x1="-50.4298" y1="179.119" x2="-35.5708" y2="179.119" gradientTransform="matrix(0.957 0.3152 -0.1008 1.0118 88.1102 -96.2486)">
	<stop  offset="0" style="stop-color:#404041"/>
	<stop  offset="1" style="stop-color:#000000"/>
</linearGradient>
<path fill="url(#SVGID_2_)" d="M36,72.3c1-3.1-0.5-6.7-3.2-7.8c-1.3-0.5-2.6-0.2-3.6,0.5c-0.6-1.4-1.6-2.4-2.7-2.9
	c-2.3-0.9-4.2,1.1-4.4,4c-0.1,1.3,0.2,2.6,0.7,3.7c1.3,4.1,4.1,9.4,4.1,9.4s4.6-1.7,7.4-4.4C35,74.3,35.6,73.4,36,72.3z"/>
</svg>
