<?xml version="1.0" encoding="utf-8"?>
<!-- Generator: Adobe Illustrator 18.1.1, SVG Export Plug-In . SVG Version: 6.00 Build 0)  -->
<!DOCTYPE svg PUBLIC "-//W3C//DTD SVG 1.1//EN" "http://www.w3.org/Graphics/SVG/1.1/DTD/svg11.dtd">
<svg version="1.1" id="Layer_1" xmlns="http://www.w3.org/2000/svg" xmlns:xlink="http://www.w3.org/1999/xlink" x="0px" y="0px"
	 viewBox="0 0 88.9 104.8" enable-background="new 0 0 88.9 104.8" xml:space="preserve">
<path fill="#231F20" d="M4.6,58.4l0.2,2c0,0,1.9-2.2,4.3-1.6s3.7,3,3.7,3l1.8-0.9c0,0-1.4-4-5.4-4.4C6.8,56.1,4.6,58.4,4.6,58.4z"/>
<path fill="#231F20" d="M22.9,63.4l0.3,2.4c0,0,2.7-2.3,6.2-1.3c3.4,1,5.3,4,5.3,4l2.5-0.8c0,0-2-4.9-7.8-6
	C26,61.1,22.9,63.4,22.9,63.4z"/>
</svg>
