<?xml version="1.0" encoding="utf-8"?>
<!-- Generator: Adobe Illustrator 18.1.1, SVG Export Plug-In . SVG Version: 6.00 Build 0)  -->
<!DOCTYPE svg PUBLIC "-//W3C//DTD SVG 1.1//EN" "http://www.w3.org/Graphics/SVG/1.1/DTD/svg11.dtd">
<svg version="1.1" id="Layer_1" xmlns="http://www.w3.org/2000/svg" xmlns:xlink="http://www.w3.org/1999/xlink" x="0px" y="0px"
	 viewBox="0 0 32.3 22.8" enable-background="new 0 0 32.3 22.8" xml:space="preserve">
<linearGradient id="SVGID_1_" gradientUnits="userSpaceOnUse" x1="-108.1859" y1="-132.3628" x2="-94.6269" y2="-132.3628" gradientTransform="matrix(0.7755 0.4449 -0.237 0.9863 52.0609 184.6568)">
	<stop  offset="0" style="stop-color:#404041"/>
	<stop  offset="1" style="stop-color:#000000"/>
</linearGradient>
<path fill="url(#SVGID_1_)" d="M10.2,10.7c1.2-2.6,0.6-6.1-1.5-7.4c-1-0.6-2-0.6-2.9,0C5.6,2,5,0.9,4.1,0.3c-1.7-1.1-3.4,0.4-4,3
	C-0.1,4.5,0,5.8,0.2,6.8c0.5,3.9,2,9,2,9s3.8-1,6.4-3C9.2,12.3,9.8,11.7,10.2,10.7z"/>
<linearGradient id="SVGID_2_" gradientUnits="userSpaceOnUse" x1="-38.0662" y1="-107.3958" x2="-23.2072" y2="-107.3958" gradientTransform="matrix(0.957 0.3152 -0.1008 1.0118 43.4104 133.3174)">
	<stop  offset="0" style="stop-color:#404041"/>
	<stop  offset="1" style="stop-color:#000000"/>
</linearGradient>
<path fill="url(#SVGID_2_)" d="M32,15.9c1-3.1-0.5-6.7-3.2-7.8c-1.3-0.5-2.6-0.2-3.6,0.5c-0.6-1.4-1.6-2.4-2.7-2.9
	c-2.3-0.9-4.2,1.1-4.4,4c-0.1,1.3,0.2,2.6,0.7,3.7c1.3,4.1,4.1,9.4,4.1,9.4s4.6-1.7,7.4-4.4C31,17.8,31.7,17,32,15.9z"/>
</svg>
