<?xml version="1.0" encoding="utf-8"?>
<!-- Generator: Adobe Illustrator 18.1.1, SVG Export Plug-In . SVG Version: 6.00 Build 0)  -->
<!DOCTYPE svg PUBLIC "-//W3C//DTD SVG 1.1//EN" "http://www.w3.org/Graphics/SVG/1.1/DTD/svg11.dtd">
<svg version="1.1" id="Layer_1" xmlns="http://www.w3.org/2000/svg" xmlns:xlink="http://www.w3.org/1999/xlink" x="0px" y="0px"
	 viewBox="0 0 34.9 22.5" enable-background="new 0 0 34.9 22.5" xml:space="preserve">
<linearGradient id="SVGID_1_" gradientUnits="userSpaceOnUse" x1="-107.4732" y1="-69.5826" x2="-68.7232" y2="-27.7076" gradientTransform="matrix(0.8253 0.4953 -0.2165 0.9763 77.6406 121.1313)">
	<stop  offset="0" style="stop-color:#404041"/>
	<stop  offset="1" style="stop-color:#000000"/>
</linearGradient>
<path fill="url(#SVGID_1_)" d="M8.6,15l-6.7-2.7c-1.4-0.5-2.2-2.3-1.8-4l1.3-6.1c0.4-1.7,1.8-2.7,3.3-2.2l7,2.4
	c1.5,0.5,2.4,2.4,2,4.2L12.1,13C11.7,14.7,10.1,15.6,8.6,15z"/>
<linearGradient id="SVGID_2_" gradientUnits="userSpaceOnUse" x1="-97.2383" y1="-81.853" x2="-58.4883" y2="-39.978" gradientTransform="matrix(0.8834 0.5082 -0.2165 0.9763 87.023 123.2123)">
	<stop  offset="0" style="stop-color:#404041"/>
	<stop  offset="1" style="stop-color:#000000"/>
</linearGradient>
<path fill="url(#SVGID_2_)" d="M28.8,22.3l-7.7-3.3c-1.5-0.6-2.3-2.6-1.9-4.3l1.4-6.5c0.4-1.8,1.9-2.9,3.5-2.5l8,2.2
	c1.9,0.5,3.1,2.6,2.6,4.7L33,20C32.5,22,30.6,23,28.8,22.3z"/>
</svg>
