<?xml version="1.0" encoding="utf-8"?>
<!-- Generator: Adobe Illustrator 18.1.1, SVG Export Plug-In . SVG Version: 6.00 Build 0)  -->
<!DOCTYPE svg PUBLIC "-//W3C//DTD SVG 1.1//EN" "http://www.w3.org/Graphics/SVG/1.1/DTD/svg11.dtd">
<svg version="1.1" id="Layer_1" xmlns="http://www.w3.org/2000/svg" xmlns:xlink="http://www.w3.org/1999/xlink" x="0px" y="0px"
	 viewBox="0 0 88.9 104.8" enable-background="new 0 0 88.9 104.8" xml:space="preserve">
<linearGradient id="SVGID_1_" gradientUnits="userSpaceOnUse" x1="-163.4698" y1="315.2088" x2="-124.7198" y2="357.0838" gradientTransform="matrix(0.8253 0.4953 -0.2165 0.9763 210.2261 -171.2862)">
	<stop  offset="0" style="stop-color:#404041"/>
	<stop  offset="1" style="stop-color:#000000"/>
</linearGradient>
<path fill="url(#SVGID_1_)" d="M11.7,70.5L5,67.8c-1.4-0.5-2.2-2.3-1.8-4l1.3-6.1c0.4-1.7,1.8-2.7,3.3-2.2l7,2.4
	c1.5,0.5,2.4,2.4,2,4.2l-1.6,6.3C14.7,70.2,13.2,71.1,11.7,70.5z"/>
<linearGradient id="SVGID_2_" gradientUnits="userSpaceOnUse" x1="-113.2801" y1="290.7588" x2="-74.5301" y2="332.6338" gradientTransform="matrix(0.8834 0.5082 -0.2165 0.9763 184.9304 -176.8968)">
	<stop  offset="0" style="stop-color:#404041"/>
	<stop  offset="1" style="stop-color:#000000"/>
</linearGradient>
<path fill="url(#SVGID_2_)" d="M31.9,77.8l-7.7-3.3c-1.5-0.6-2.3-2.6-1.9-4.3l1.4-6.5c0.4-1.8,1.9-2.9,3.5-2.5l8,2.2
	c1.9,0.5,3.1,2.6,2.6,4.7l-1.8,7.5C35.6,77.5,33.7,78.5,31.9,77.8z"/>
</svg>
