<?xml version="1.0" encoding="utf-8"?>
<!-- Generator: Adobe Illustrator 18.1.1, SVG Export Plug-In . SVG Version: 6.00 Build 0)  -->
<!DOCTYPE svg PUBLIC "-//W3C//DTD SVG 1.1//EN" "http://www.w3.org/Graphics/SVG/1.1/DTD/svg11.dtd">
<svg version="1.1" id="Layer_1" xmlns="http://www.w3.org/2000/svg" xmlns:xlink="http://www.w3.org/1999/xlink" x="0px" y="0px"
	 viewBox="0 0 32.3 29.1" enable-background="new 0 0 32.3 29.1" xml:space="preserve">
<linearGradient id="SVGID_1_" gradientUnits="userSpaceOnUse" x1="-1.0645" y1="-8.7532" x2="11.6022" y2="30.5801">
	<stop  offset="0" style="stop-color:#404041"/>
	<stop  offset="1" style="stop-color:#000000"/>
</linearGradient>
<path fill="url(#SVGID_1_)" d="M2.2,22.8c-1.9-2.1-2.6-7.1-2-11.8l2,0.5l0.2-1.1L0.6,8.6C1.7,3.8,4.2-0.1,6.8,0
	C10,0.1,12,6.1,10.9,13.5L7,12.9l-0.3,1.3l3.3,2.9C8.1,23.4,4.6,25.4,2.2,22.8z"/>
<linearGradient id="SVGID_2_" gradientUnits="userSpaceOnUse" x1="20.8465" y1="-1.6637" x2="30.1799" y2="32.3363">
	<stop  offset="0" style="stop-color:#404041"/>
	<stop  offset="1" style="stop-color:#000000"/>
</linearGradient>
<path fill="url(#SVGID_2_)" d="M22.1,27.9c-2.2-2.1-3.1-7.1-2.3-11.8l2.3,0.5l0.2-1.1l-2-1.8c1.3-4.8,4.2-8.7,7.1-8.6
	c3.7,0.1,6.1,6.1,4.8,13.5L27.7,18l-0.3,1.3l3.8,2.9C28.9,28.6,24.8,30.6,22.1,27.9z"/>
</svg>
