<?xml version="1.0" encoding="utf-8"?>
<!-- Generator: Adobe Illustrator 18.1.1, SVG Export Plug-In . SVG Version: 6.00 Build 0)  -->
<!DOCTYPE svg PUBLIC "-//W3C//DTD SVG 1.1//EN" "http://www.w3.org/Graphics/SVG/1.1/DTD/svg11.dtd">
<svg version="1.1" id="Layer_1" xmlns="http://www.w3.org/2000/svg" xmlns:xlink="http://www.w3.org/1999/xlink" x="0px" y="0px"
	 viewBox="0 0 25.6 23.6" enable-background="new 0 0 25.6 23.6" xml:space="preserve">
<linearGradient id="SVGID_1_" gradientUnits="userSpaceOnUse" x1="-294.9048" y1="679.9606" x2="-288.4517" y2="686.6619" gradientTransform="matrix(0.8957 0.1136 -0.14 1.1042 377.8635 -706.1977)">
	<stop  offset="0" style="stop-color:#404041"/>
	<stop  offset="1" style="stop-color:#000000"/>
</linearGradient>
<path fill="url(#SVGID_1_)" d="M14.3,13.7c-0.7,5.6,1.2,10,4.3,9.8c3.1-0.2,6.2-4.9,6.9-10.6c0.7-5.7-1.2-10.1-4.3-9.8
	C18.1,3.4,15,8.1,14.3,13.7z"/>
<linearGradient id="SVGID_2_" gradientUnits="userSpaceOnUse" x1="225.2661" y1="880.0607" x2="230.9537" y2="885.9672" gradientTransform="matrix(0.9888 0.1491 -0.1509 1.001 -87.889 -907.3549)">
	<stop  offset="0" style="stop-color:#404041"/>
	<stop  offset="1" style="stop-color:#000000"/>
</linearGradient>
<path opacity="0.9" fill="url(#SVGID_2_)" d="M0.2,9.8c-0.8,5.1,0,8.6,1.7,8.3c1.7-0.3,3.8-4.2,4.6-9.3s0-9-1.8-8.7
	C3,0.3,1,4.7,0.2,9.8z"/>
</svg>
