<?xml version="1.0" encoding="utf-8"?>
<!-- Generator: Adobe Illustrator 18.1.1, SVG Export Plug-In . SVG Version: 6.00 Build 0)  -->
<!DOCTYPE svg PUBLIC "-//W3C//DTD SVG 1.1//EN" "http://www.w3.org/Graphics/SVG/1.1/DTD/svg11.dtd">
<svg version="1.1" id="Layer_1" xmlns="http://www.w3.org/2000/svg" xmlns:xlink="http://www.w3.org/1999/xlink" x="0px" y="0px"
	 viewBox="0 0 88.9 104.8" enable-background="new 0 0 88.9 104.8" xml:space="preserve">
<linearGradient id="SVGID_1_" gradientUnits="userSpaceOnUse" x1="1.7609" y1="44.2994" x2="14.4276" y2="83.6328">
	<stop  offset="0" style="stop-color:#404041"/>
	<stop  offset="1" style="stop-color:#000000"/>
</linearGradient>
<path fill="url(#SVGID_1_)" d="M5.1,75.8C3.2,73.7,2.4,68.8,3,64l2,0.5l0.2-1.1l-1.7-1.8c1.1-4.8,3.6-8.7,6.1-8.6
	c3.2,0.1,5.3,6.1,4.1,13.5l-3.8-0.7l-0.3,1.3l3.3,2.9C10.9,76.4,7.4,78.4,5.1,75.8z"/>
<linearGradient id="SVGID_2_" gradientUnits="userSpaceOnUse" x1="23.6719" y1="51.389" x2="33.0053" y2="85.389">
	<stop  offset="0" style="stop-color:#404041"/>
	<stop  offset="1" style="stop-color:#000000"/>
</linearGradient>
<path fill="url(#SVGID_2_)" d="M24.9,81c-2.2-2.1-3.1-7.1-2.3-11.8l2.3,0.5l0.2-1.1l-2-1.8c1.3-4.8,4.2-8.7,7.1-8.6
	c3.7,0.1,6.1,6.1,4.8,13.5l-4.4-0.7l-0.3,1.3l3.8,2.9C31.7,81.6,27.6,83.6,24.9,81z"/>
</svg>
