<?xml version="1.0" encoding="utf-8"?>
<!-- Generator: Adobe Illustrator 18.1.1, SVG Export Plug-In . SVG Version: 6.00 Build 0)  -->
<!DOCTYPE svg PUBLIC "-//W3C//DTD SVG 1.1//EN" "http://www.w3.org/Graphics/SVG/1.1/DTD/svg11.dtd">
<svg version="1.1" id="Layer_1" xmlns="http://www.w3.org/2000/svg" xmlns:xlink="http://www.w3.org/1999/xlink" x="0px" y="0px"
	 viewBox="0 0 84.9 68.7" enable-background="new 0 0 84.9 68.7" xml:space="preserve">
<g>
	<polygon fill="#1E75BB" points="-1151.7,36 -1152.9,36.6 -1152.6,37.7 -1160.3,52.5 -1154,67.5 -1146,68.9 -1144.8,68.3 
		-1143.1,65.4 	"/>
	<polygon fill="#0A4F67" points="-1161.5,53.2 -1155.2,68.1 -1146,68.9 -1144.3,66 -1152.9,36.6 	"/>
</g>
<polygon fill="#0A4F67" points="-1173.8,70.4 -1170.8,76.6 -1168.6,76.6 -1171.4,68.1 "/>
<polygon fill="#1E75BB" points="-1168.6,76.6 -1166.8,72.2 -1167.9,68 -1171.4,68.1 "/>
<g>
	<g>
		
			<linearGradient id="SVGID_1_" gradientUnits="userSpaceOnUse" x1="-1240.3865" y1="143.435" x2="-1239.8925" y2="143.435" gradientTransform="matrix(0.9995 -3.191452e-02 3.191452e-02 0.9995 7.1038 -123.2808)">
			<stop  offset="0" style="stop-color:#F1F1F2"/>
			<stop  offset="1" style="stop-color:#A6A8AB"/>
		</linearGradient>
		<path fill="url(#SVGID_1_)" d="M-1227.6,60c-0.3-0.4-0.5-0.6-0.5-0.6S-1227.9,59.6-1227.6,60z"/>
		
			<linearGradient id="SVGID_2_" gradientUnits="userSpaceOnUse" x1="-1239.8925" y1="134.2715" x2="-1157.7799" y2="134.2715" gradientTransform="matrix(0.9995 -3.191452e-02 3.191452e-02 0.9995 7.1038 -123.2808)">
			<stop  offset="0" style="stop-color:#F1F1F2"/>
			<stop  offset="1" style="stop-color:#A6A8AB"/>
		</linearGradient>
		<path fill="url(#SVGID_2_)" d="M-1146.6,30.5c0.1-3.2,0-7.5-0.7-9.2c-1.3-2.9-3.9,2-3.9,2l3.4,8.6c-1.6,6.9-9.6,14.3-18.8,21.4
			c-12.4,9.6-24.2,11.8-39.3,13.8c-12.8,1.7-19.8-5-21.7-7.1c2.3,2.7,11.3,13.4,14.1,14.7c3.1,1.4,23.5,6.5,42.2-4.2
			c18.8-10.7,23.2-16.1,24.7-28.4C-1146,36.9-1146.2,33.1-1146.6,30.5z"/>
	</g>
	
		<linearGradient id="SVGID_3_" gradientUnits="userSpaceOnUse" x1="-1229.1718" y1="147.5577" x2="-1222.4861" y2="154.5006" gradientTransform="matrix(0.9995 -3.191452e-02 3.191452e-02 0.9995 7.1038 -123.2808)">
		<stop  offset="0" style="stop-color:#6D6E71"/>
		<stop  offset="1" style="stop-color:#000000"/>
	</linearGradient>
	<path fill="url(#SVGID_3_)" d="M-1223.8,63.3c0,0,2.1,3.6,6.4,4.1c4.3,0.6,11.7-0.4,11.7-0.4S-1216.3,65.8-1223.8,63.3z"/>
	<linearGradient id="SVGID_4_" gradientUnits="userSpaceOnUse" x1="-1229.7205" y1="-2.1802" x2="-1167.2911" y2="59.4054">
		<stop  offset="0" style="stop-color:#A6A8AB"/>
		<stop  offset="1" style="stop-color:#58595B"/>
	</linearGradient>
	<path fill="url(#SVGID_4_)" d="M-1148.7,24.9c1.2-0.6,2.1-1.9,0.8-4.9c-2.4-5.4-11-12.1-11-12.1c-10.8-8-24.5-11.5-38.2-8.3
		c-22.2,5.1-31.3,19.5-34.9,38.1c-0.6,9.4-0.1,12.9,2.5,19.2c10.6,27,91.5-4.6,80.9-31.6C-1148.5,25.2-1148.6,25-1148.7,24.9z"/>
</g>
<g>
	<path opacity="0.5" d="M-244.4-242.6l-22.8,16.5c-3.3-1.8-6.9-3.2-10.9-4.2c-11.9-4.5-27.8-4.9-44.1-0.2
		c-29.6,8.5-49.3,30.6-43.9,49.5c2.9,10,12.2,17.1,24.8,20.2c11.9,4.5,27.8,4.9,44.1,0.2c29.6-8.5,49.3-30.6,43.9-49.5
		c-1.3-4.6-4-8.6-7.8-11.8l20-16.7C-240.3-242-244.4-242.6-244.4-242.6z"/>
	<polygon fill="#1E75BB" points="-295.6,-187.1 -288.1,-167 -277.5,-164.8 -275.9,-165.6 -273.6,-169.4 -283.7,-208.5 	"/>
	<polygon fill="#29AAE1" points="-297.2,-186.2 -289.7,-166.2 -277.5,-164.8 -275.2,-168.6 -285.3,-207.7 	"/>
	<polygon fill="#29AAE1" points="-337.1,-164.8 -333.4,-156.4 -330.5,-156.4 -333.8,-167.7 	"/>
	<polygon fill="#1E75BB" points="-330.5,-156.4 -327.9,-162.1 -329.2,-167.7 -333.8,-167.7 	"/>
	<g>
		<linearGradient id="SVGID_5_" gradientUnits="userSpaceOnUse" x1="-392.8242" y1="-186.6223" x2="-392.1723" y2="-186.6223">
			<stop  offset="0" style="stop-color:#FFFFFF"/>
			<stop  offset="1" style="stop-color:#D1D2D3"/>
		</linearGradient>
		<path fill="url(#SVGID_5_)" d="M-392.2-186.2c-0.4-0.5-0.7-0.8-0.7-0.8S-392.6-186.7-392.2-186.2z"/>
		<linearGradient id="SVGID_6_" gradientUnits="userSpaceOnUse" x1="-392.1723" y1="-198.7138" x2="-283.8225" y2="-198.7138">
			<stop  offset="0" style="stop-color:#FFFFFF"/>
			<stop  offset="1" style="stop-color:#D1D2D3"/>
		</linearGradient>
		<path fill="url(#SVGID_6_)" d="M-284.2-221.7c0.3-4.3,0.4-9.9-0.6-12.2c-1.6-3.8-5.2,2.5-5.2,2.5l4.2,11.5
			c-2.4,9-13.2,18.5-25.6,27.5c-16.8,12.2-32.4,14.6-52.4,16.6c-16.9,1.7-26-7.5-28.4-10.3c2.9,3.7,14.4,18.2,17.9,19.9
			c4.1,2,30.7,9.6,55.9-3.8c25.2-13.3,31.3-20.3,33.8-36.5C-283.6-213.2-283.7-218.2-284.2-221.7z"/>
	</g>
	<linearGradient id="SVGID_7_" gradientUnits="userSpaceOnUse" x1="-378.0261" y1="-181.1822" x2="-369.2041" y2="-172.0209">
		<stop  offset="0" style="stop-color:#6D6E71"/>
		<stop  offset="1" style="stop-color:#000000"/>
	</linearGradient>
	<path fill="url(#SVGID_7_)" d="M-387.4-181.6c0,0,2.7,4.8,8.3,5.7c5.6,1,15.5,0,15.5,0S-377.5-178-387.4-181.6z"/>
	<radialGradient id="SVGID_8_" cx="-408.0763" cy="-268.9238" r="131.9451" gradientUnits="userSpaceOnUse">
		<stop  offset="0" style="stop-color:#29AAE1"/>
		<stop  offset="1" style="stop-color:#1E75BB"/>
	</radialGradient>
	<path fill="url(#SVGID_8_)" d="M-286.6-229.2c1.5-0.8,2.9-2.5,1.3-6.4c-2.9-7.2-13.9-16.4-13.9-16.4c-13.9-11-31.8-16.2-50-12.6
		c-29.5,5.8-42.1,24.5-47.6,48.7c-1.2,12.3-0.6,17,2.4,25.5c12.9,36,120.9-2.2,108-38.2C-286.5-228.8-286.5-229-286.6-229.2z"/>
	<linearGradient id="SVGID_9_" gradientUnits="userSpaceOnUse" x1="-323.9236" y1="-279.4673" x2="-318.1012" y2="-273.421">
		<stop  offset="0" style="stop-color:#6D6E71"/>
		<stop  offset="1" style="stop-color:#000000"/>
	</linearGradient>
	<path fill="url(#SVGID_9_)" d="M-349.1-261.5l49.2-35.6c0,0,4.1,0.6,3.2,4.1l-35,29.2C-331.7-263.8-342.7-264.3-349.1-261.5z"/>
	<linearGradient id="SVGID_10_" gradientUnits="userSpaceOnUse" x1="-377.8998" y1="-218.3148" x2="-353.4455" y2="-192.9199">
		<stop  offset="0" style="stop-color:#BBBDBF"/>
		<stop  offset="1" style="stop-color:#58595B"/>
	</linearGradient>
	<path fill="url(#SVGID_10_)" d="M-393.5-195.2c0,0,19,9.1,25.7,9.1s17.9-2.8,20.8-10s4.1-14.1,4.1-14.1s1.9-16.4-11-19.2
		c-12.8-2.8-25.2-4.1-28.8-7.4c-3.6-3.3-10.6,10.2-11.5,14.2C-395.2-218.7-398.6-202.5-393.5-195.2z"/>
	
		<linearGradient id="SVGID_11_" gradientUnits="userSpaceOnUse" x1="-658.9493" y1="296.5161" x2="-650.4343" y2="305.3586" gradientTransform="matrix(0.8916 0.1421 -0.1751 1.0991 270.77 -445.4661)">
		<stop  offset="0" style="stop-color:#404041"/>
		<stop  offset="1" style="stop-color:#000000"/>
	</linearGradient>
	<path fill="url(#SVGID_11_)" d="M-374.4-209.9c-1.2,7.4,1.2,13.3,5.2,13.1c4.1-0.1,8.3-6.2,9.5-13.7c1.2-7.4-1.2-13.3-5.3-13.1
		C-369-223.4-373.2-217.3-374.4-209.9z"/>
	
		<linearGradient id="SVGID_12_" gradientUnits="userSpaceOnUse" x1="-240.2293" y1="430.8771" x2="-232.7243" y2="438.6708" gradientTransform="matrix(0.9836 0.1806 -0.1828 0.9957 -75.2494 -604.6683)">
		<stop  offset="0" style="stop-color:#404041"/>
		<stop  offset="1" style="stop-color:#000000"/>
	</linearGradient>
	<path opacity="0.9" fill="url(#SVGID_12_)" d="M-392.8-215.7c-1.2,6.7-0.4,11.3,1.9,11c2.3-0.3,5.2-5.4,6.4-12.1
		c1.2-6.7,0.4-11.9-2-11.6C-388.7-228.1-391.6-222.4-392.8-215.7z"/>
</g>
<g>
	<path opacity="0.5" d="M-361.5,417.4l-22.8,16.5c-3.3-1.8-6.9-3.2-10.9-4.2c-11.9-4.5-27.8-4.9-44.1-0.2
		c-29.6,8.5-49.3,30.6-43.9,49.5c2.9,10,12.2,17.1,24.8,20.2c11.9,4.5,27.8,4.9,44.1,0.2c29.6-8.5,49.3-30.6,43.9-49.5
		c-1.3-4.6-4-8.6-7.8-11.8l20-16.7C-357.4,417.9-361.5,417.4-361.5,417.4z"/>
	<polygon fill="#1E75BB" points="-412.7,472.9 -405.2,492.9 -394.6,495.2 -393,494.3 -390.7,490.6 -400.8,451.5 	"/>
	<polygon fill="#29AAE1" points="-414.3,473.7 -406.8,493.7 -394.6,495.2 -392.3,491.4 -402.4,452.3 	"/>
	<polygon fill="#29AAE1" points="-454.2,495.2 -450.5,503.5 -447.6,503.5 -450.9,492.2 	"/>
	<polygon fill="#1E75BB" points="-447.6,503.5 -445,497.9 -446.3,492.2 -450.9,492.2 	"/>
	<g>
		<linearGradient id="SVGID_13_" gradientUnits="userSpaceOnUse" x1="-509.9164" y1="473.3178" x2="-509.2646" y2="473.3178">
			<stop  offset="0" style="stop-color:#FFFFFF"/>
			<stop  offset="1" style="stop-color:#D1D2D3"/>
		</linearGradient>
		<path fill="url(#SVGID_13_)" d="M-509.3,473.7c-0.4-0.5-0.7-0.8-0.7-0.8S-509.7,473.2-509.3,473.7z"/>
		<linearGradient id="SVGID_14_" gradientUnits="userSpaceOnUse" x1="-509.2646" y1="461.2263" x2="-400.9148" y2="461.2263">
			<stop  offset="0" style="stop-color:#FFFFFF"/>
			<stop  offset="1" style="stop-color:#D1D2D3"/>
		</linearGradient>
		<path fill="url(#SVGID_14_)" d="M-401.3,438.2c0.3-4.3,0.4-9.9-0.6-12.2c-1.6-3.8-5.2,2.5-5.2,2.5l4.2,11.5
			c-2.4,9-13.2,18.5-25.6,27.5c-16.8,12.2-32.4,14.6-52.4,16.6c-16.9,1.7-26-7.5-28.4-10.3c2.9,3.7,14.4,18.2,17.9,19.9
			c4.1,2,30.7,9.6,55.9-3.8c25.2-13.3,31.3-20.3,33.8-36.5C-400.7,446.7-400.8,441.8-401.3,438.2z"/>
	</g>
	<linearGradient id="SVGID_15_" gradientUnits="userSpaceOnUse" x1="-495.1183" y1="478.7578" x2="-486.2963" y2="487.9191">
		<stop  offset="0" style="stop-color:#6D6E71"/>
		<stop  offset="1" style="stop-color:#000000"/>
	</linearGradient>
	<path fill="url(#SVGID_15_)" d="M-504.5,478.3c0,0,2.7,4.8,8.3,5.7c5.6,1,15.5,0,15.5,0S-494.6,481.9-504.5,478.3z"/>
	<radialGradient id="SVGID_16_" cx="-525.1686" cy="391.0162" r="131.9451" gradientUnits="userSpaceOnUse">
		<stop  offset="0" style="stop-color:#29AAE1"/>
		<stop  offset="1" style="stop-color:#1E75BB"/>
	</radialGradient>
	<path fill="url(#SVGID_16_)" d="M-403.7,430.8c1.5-0.8,2.9-2.5,1.3-6.4c-2.9-7.2-13.9-16.4-13.9-16.4c-13.9-11-31.8-16.2-50-12.6
		c-29.5,5.8-42.1,24.5-47.6,48.7c-1.2,12.3-0.6,17,2.4,25.5c12.9,36,120.9-2.2,108-38.2C-403.6,431.2-403.6,431-403.7,430.8z"/>
	<linearGradient id="SVGID_17_" gradientUnits="userSpaceOnUse" x1="-441.0158" y1="380.4727" x2="-435.1935" y2="386.519">
		<stop  offset="0" style="stop-color:#6D6E71"/>
		<stop  offset="1" style="stop-color:#000000"/>
	</linearGradient>
	<path fill="url(#SVGID_17_)" d="M-466.1,398.5l49.2-35.6c0,0,4.1,0.6,3.2,4.1l-35,29.2C-448.8,396.1-459.8,395.6-466.1,398.5z"/>
	<linearGradient id="SVGID_18_" gradientUnits="userSpaceOnUse" x1="-494.9921" y1="441.6252" x2="-470.5378" y2="467.0201">
		<stop  offset="0" style="stop-color:#BBBDBF"/>
		<stop  offset="1" style="stop-color:#58595B"/>
	</linearGradient>
	<path fill="url(#SVGID_18_)" d="M-510.6,464.7c0,0,19,9.1,25.7,9.1s17.9-2.8,20.8-10c3-7.3,4.1-14.1,4.1-14.1s1.9-16.4-11-19.2
		c-12.8-2.8-25.2-4.1-28.8-7.4c-3.6-3.3-10.6,10.2-11.5,14.2S-515.7,457.5-510.6,464.7z"/>
	
		<linearGradient id="SVGID_19_" gradientUnits="userSpaceOnUse" x1="-672.0016" y1="898.6235" x2="-663.4867" y2="907.466" gradientTransform="matrix(0.8916 0.1421 -0.1751 1.0991 270.77 -445.4661)">
		<stop  offset="0" style="stop-color:#404041"/>
		<stop  offset="1" style="stop-color:#000000"/>
	</linearGradient>
	<path fill="url(#SVGID_19_)" d="M-491.5,450c-1.2,7.4,1.2,13.3,5.2,13.1c4.1-0.1,8.3-6.2,9.5-13.7s-1.2-13.3-5.3-13.1
		C-486.1,436.5-490.3,442.7-491.5,450z"/>
	
		<linearGradient id="SVGID_20_" gradientUnits="userSpaceOnUse" x1="-236.2434" y1="1092.9314" x2="-228.7383" y2="1100.7251" gradientTransform="matrix(0.9836 0.1806 -0.1828 0.9957 -75.2494 -604.6683)">
		<stop  offset="0" style="stop-color:#404041"/>
		<stop  offset="1" style="stop-color:#000000"/>
	</linearGradient>
	<path opacity="0.9" fill="url(#SVGID_20_)" d="M-509.9,444.3c-1.2,6.7-0.4,11.3,1.9,11c2.3-0.3,5.2-5.4,6.4-12.1s0.4-11.9-2-11.6
		C-505.8,431.9-508.7,437.6-509.9,444.3z"/>
</g>
<g>
	
		<linearGradient id="SVGID_21_" gradientUnits="userSpaceOnUse" x1="-977.497" y1="1105.7356" x2="-968.9821" y2="1114.5781" gradientTransform="matrix(0.8916 0.1421 -0.1751 1.0991 270.77 -445.4661)">
		<stop  offset="0" style="stop-color:#404041"/>
		<stop  offset="1" style="stop-color:#000000"/>
	</linearGradient>
	<path fill="url(#SVGID_21_)" d="M-800.2,634.3c-1.2,7.4,1.2,13.3,5.2,13.1c4.1-0.1,8.3-6.2,9.5-13.7c1.2-7.4-1.2-13.3-5.3-13.1
		C-794.8,620.8-799,626.9-800.2,634.3z"/>
	
		<linearGradient id="SVGID_22_" gradientUnits="userSpaceOnUse" x1="-506.5725" y1="1326.9802" x2="-499.0674" y2="1334.7739" gradientTransform="matrix(0.9836 0.1806 -0.1828 0.9957 -75.2494 -604.6683)">
		<stop  offset="0" style="stop-color:#404041"/>
		<stop  offset="1" style="stop-color:#000000"/>
	</linearGradient>
	<path opacity="0.9" fill="url(#SVGID_22_)" d="M-818.6,628.5c-1.2,6.7-0.4,11.3,1.9,11c2.3-0.3,5.2-5.4,6.4-12.1
		c1.2-6.7,0.4-11.9-2-11.6C-814.5,616.1-817.3,621.8-818.6,628.5z"/>
	<path opacity="0.5" d="M-670.1,601.6l-22.8,16.5c-3.3-1.8-6.9-3.2-10.9-4.2c-11.9-4.5-27.8-4.9-44.1-0.2
		c-29.6,8.5-49.3,30.6-43.9,49.5c2.9,10,12.2,17.1,24.8,20.2c11.9,4.5,27.8,4.9,44.1,0.2c29.6-8.5,49.3-30.6,43.9-49.5
		c-1.3-4.6-4-8.6-7.8-11.8l20-16.7C-666.1,602.2-670.1,601.6-670.1,601.6z"/>
	<polygon fill="#1E75BB" points="-721.4,657.1 -713.8,677.1 -703.3,679.4 -701.7,678.6 -699.4,674.8 -709.5,635.7 	"/>
	<polygon fill="#29AAE1" points="-723,657.9 -715.4,677.9 -703.3,679.4 -701,675.6 -711.1,636.5 	"/>
	<polygon fill="#29AAE1" points="-762.8,679.4 -759.2,687.8 -756.3,687.8 -759.6,676.5 	"/>
	<polygon fill="#1E75BB" points="-756.3,687.8 -753.7,682.1 -755,676.5 -759.6,676.5 	"/>
	<g>
		<linearGradient id="SVGID_23_" gradientUnits="userSpaceOnUse" x1="-818.5831" y1="657.5563" x2="-817.9312" y2="657.5563">
			<stop  offset="0" style="stop-color:#FFFFFF"/>
			<stop  offset="1" style="stop-color:#D1D2D3"/>
		</linearGradient>
		<path fill="url(#SVGID_23_)" d="M-817.9,658c-0.4-0.5-0.7-0.8-0.7-0.8S-818.4,657.5-817.9,658z"/>
		<linearGradient id="SVGID_24_" gradientUnits="userSpaceOnUse" x1="-817.9312" y1="645.4647" x2="-709.5815" y2="645.4647">
			<stop  offset="0" style="stop-color:#FFFFFF"/>
			<stop  offset="1" style="stop-color:#D1D2D3"/>
		</linearGradient>
		<path fill="url(#SVGID_24_)" d="M-710,622.5c0.3-4.3,0.4-9.9-0.6-12.2c-1.6-3.8-5.2,2.5-5.2,2.5l4.2,11.5
			c-2.4,9-13.2,18.5-25.6,27.5c-16.8,12.2-32.4,14.6-52.4,16.6c-16.9,1.7-26-7.5-28.4-10.3c2.9,3.7,14.4,18.2,17.9,19.9
			c4.1,2,30.7,9.6,55.9-3.8c25.2-13.3,31.3-20.3,33.8-36.5C-709.3,631-709.5,626-710,622.5z"/>
	</g>
	<linearGradient id="SVGID_25_" gradientUnits="userSpaceOnUse" x1="-803.785" y1="662.9963" x2="-794.963" y2="672.1576">
		<stop  offset="0" style="stop-color:#6D6E71"/>
		<stop  offset="1" style="stop-color:#000000"/>
	</linearGradient>
	<path fill="url(#SVGID_25_)" d="M-813.1,662.6c0,0,2.7,4.8,8.3,5.7s15.5,0,15.5,0S-803.3,666.1-813.1,662.6z"/>
	<radialGradient id="SVGID_26_" cx="-833.8353" cy="575.2547" r="131.9451" gradientUnits="userSpaceOnUse">
		<stop  offset="0" style="stop-color:#29AAE1"/>
		<stop  offset="1" style="stop-color:#1E75BB"/>
	</radialGradient>
	<path fill="url(#SVGID_26_)" d="M-712.4,615c1.5-0.8,2.9-2.5,1.3-6.4c-2.9-7.2-13.9-16.4-13.9-16.4c-13.9-11-31.8-16.2-50-12.6
		c-29.5,5.8-42.1,24.5-47.6,48.7c-1.2,12.3-0.6,17,2.4,25.5c12.9,36,120.9-2.2,108-38.2C-712.2,615.4-712.3,615.2-712.4,615z"/>
	<linearGradient id="SVGID_27_" gradientUnits="userSpaceOnUse" x1="-749.6825" y1="564.7112" x2="-743.8601" y2="570.7575">
		<stop  offset="0" style="stop-color:#6D6E71"/>
		<stop  offset="1" style="stop-color:#000000"/>
	</linearGradient>
	<path fill="url(#SVGID_27_)" d="M-774.8,582.7l49.2-35.6c0,0,4.1,0.6,3.2,4.1l-35,29.2C-757.4,580.3-768.4,579.8-774.8,582.7z"/>
	<linearGradient id="SVGID_28_" gradientUnits="userSpaceOnUse" x1="-803.6588" y1="625.8637" x2="-779.2044" y2="651.2586">
		<stop  offset="0" style="stop-color:#BBBDBF"/>
		<stop  offset="1" style="stop-color:#58595B"/>
	</linearGradient>
	<path fill="url(#SVGID_28_)" d="M-819.3,649c0,0,19,9.1,25.7,9.1c6.7,0,17.9-2.8,20.8-10s4.1-14.1,4.1-14.1s1.9-16.4-11-19.2
		s-25.2-4.1-28.8-7.4c-3.6-3.3-10.6,10.2-11.5,14.2C-820.9,625.5-824.3,641.7-819.3,649z"/>
</g>
<text transform="matrix(1 0 0 1 -375.727 -126.0861)" font-family="'MyriadPro-Regular'" font-size="12">Solly compleet</text>
<text transform="matrix(1 0 0 1 -176.8516 -126.0941)" font-family="'MyriadPro-Regular'" font-size="12">Solly Basis</text>
<g>
	<polygon fill="#1E75BB" points="-1060.2,147 -1061.4,147.6 -1061.1,148.7 -1068.7,163.5 -1062.5,178.5 -1054.5,179.9 
		-1053.3,179.3 -1051.6,176.4 	"/>
	<polygon fill="#00ADEE" points="-1069.9,164.2 -1063.7,179.1 -1054.5,179.9 -1052.8,177 -1061.4,147.6 	"/>
</g>
<polygon fill="#0A4F67" points="-1082.2,181.4 -1079.3,187.6 -1077.1,187.6 -1079.8,179.1 "/>
<polygon fill="#00ADEE" points="-1077.1,187.6 -1075.2,183.2 -1076.4,179 -1079.8,179.1 "/>
<g>
	<polygon fill="#390C88" points="-948,147 -949.2,147.6 -948.9,148.7 -956.5,163.5 -950.3,178.5 -942.3,179.9 -941.1,179.3 
		-939.4,176.4 	"/>
	<polygon fill="#7053A2" points="-957.7,164.2 -951.5,179.1 -942.3,179.9 -940.6,177 -949.2,147.6 	"/>
</g>
<polygon fill="#390C88" points="-970.1,181.4 -967.1,187.6 -964.9,187.6 -967.6,179.1 "/>
<polygon fill="#7053A2" points="-964.9,187.6 -963.1,183.2 -964.2,179 -967.6,179.1 "/>
<g>
	<polygon fill="#6F2503" points="-835.6,147 -836.8,147.6 -836.5,148.7 -844.2,163.5 -837.9,178.5 -829.9,179.9 -828.7,179.3 
		-827,176.4 	"/>
	<polygon fill="#D52A27" points="-845.4,164.2 -839.1,179.1 -829.9,179.9 -828.2,177 -836.8,147.6 	"/>
</g>
<polygon fill="#6F2503" points="-857.7,181.4 -854.7,187.6 -852.5,187.6 -855.3,179.1 "/>
<polygon fill="#D52A27" points="-852.5,187.6 -850.7,183.2 -851.8,179 -855.3,179.1 "/>
<polygon fill="#AB7904" points="-729.6,147 -730.8,147.6 -730.5,148.7 -738.1,163.5 -731.9,178.5 -723.9,179.9 -722.7,179.3 
	-721,176.4 "/>
<polygon fill="#FDBD26" points="-739.3,164.2 -733.1,179.1 -723.9,179.9 -722.2,177 -730.8,147.6 "/>
<polygon fill="#AB7904" points="-751.6,181.4 -748.7,187.6 -746.5,187.6 -749.2,179.1 "/>
<polygon fill="#FDBD26" points="-746.5,187.6 -744.6,183.2 -745.8,179 -749.2,179.1 "/>
<polygon fill="#05581B" points="-605.8,147 -607,147.6 -606.7,148.7 -614.4,163.5 -608.1,178.5 -600.1,179.9 -598.9,179.3 
	-597.2,176.4 "/>
<polygon fill="#70BE44" points="-615.6,164.2 -609.4,179.1 -600.1,179.9 -598.4,177 -607,147.6 "/>
<polygon fill="#05581B" points="-627.9,181.4 -624.9,187.6 -622.7,187.6 -625.5,179.1 "/>
<polygon fill="#70BE44" points="-622.7,187.6 -620.9,183.2 -622,179 -625.5,179.1 "/>
<polygon fill="#B542A9" points="-488.5,147 -489.7,147.6 -489.4,148.7 -497,163.5 -490.8,178.5 -482.7,179.9 -481.5,179.3 
	-479.9,176.4 "/>
<polygon fill="#F459E4" points="-498.2,164.2 -492,179.1 -482.7,179.9 -481.1,177 -489.7,147.6 "/>
<polygon fill="#B542A9" points="-510.5,181.4 -507.6,187.6 -505.4,187.6 -508.1,179.1 "/>
<polygon fill="#F459E4" points="-505.4,187.6 -503.5,183.2 -504.6,179 -508.1,179.1 "/>
<polygon fill="#808080" points="-356.1,149 -357.3,149.7 -357,150.7 -364.6,165.5 -358.4,180.5 -350.4,182 -349.2,181.3 
	-347.5,178.4 "/>
<polygon fill="#BFBFBF" points="-365.8,166.2 -359.6,181.1 -350.4,182 -348.7,179 -357.3,149.7 "/>
<polygon fill="#808080" points="-378.1,183.4 -375.2,189.6 -373,189.6 -375.7,181.1 "/>
<polygon fill="#BFBFBF" points="-373,189.6 -371.1,185.2 -372.3,181 -375.7,181.1 "/>
<g>
	<polygon fill="#FFFFFF" stroke="#231F20" stroke-miterlimit="10" points="-224,149 -225.2,149.7 -224.9,150.7 -232.5,165.5 
		-226.3,180.5 -218.3,182 -217.1,181.3 -215.4,178.4 	"/>
	<polygon fill="#FFFFFF" stroke="#231F20" stroke-miterlimit="10" points="-233.7,166.2 -227.5,181.1 -218.3,182 -216.6,179 
		-225.2,149.7 	"/>
</g>
<polygon fill="#FFFFFF" stroke="#231F20" stroke-miterlimit="10" points="-246.1,183.4 -243.1,189.6 -240.9,189.6 -243.7,181.1 "/>
<polygon fill="#FFFFFF" stroke="#231F20" stroke-miterlimit="10" points="-240.9,189.6 -239.1,185.2 -240.2,181 -243.7,181.1 "/>
<linearGradient id="SVGID_29_" gradientUnits="userSpaceOnUse" x1="-1068.7957" y1="48.4373" x2="-1064.3832" y2="53.0194" gradientTransform="matrix(0.9995 -3.191452e-02 3.191452e-02 0.9995 7.1038 -123.2808)">
	<stop  offset="0" style="stop-color:#C6E9FA"/>
	<stop  offset="1" style="stop-color:#00ADEE"/>
</linearGradient>
<path fill="url(#SVGID_29_)" d="M-1078.2-26.5l36.4-28.2c0,0,3.1,0.3,2.5,3l-25.8,23C-1065.1-28.7-1073.4-28.9-1078.2-26.5z"/>
<linearGradient id="SVGID_30_" gradientUnits="userSpaceOnUse" x1="-969.058" y1="51.622" x2="-964.6455" y2="56.2041" gradientTransform="matrix(0.9995 -3.191452e-02 3.191452e-02 0.9995 7.1038 -123.2808)">
	<stop  offset="4.926108e-03" style="stop-color:#D8D1E7"/>
	<stop  offset="1" style="stop-color:#7053A2"/>
</linearGradient>
<path fill="url(#SVGID_30_)" d="M-978.4-26.5l36.4-28.2c0,0,3.1,0.3,2.5,3l-25.8,23C-965.3-28.7-973.7-28.9-978.4-26.5z"/>
<linearGradient id="SVGID_31_" gradientUnits="userSpaceOnUse" x1="-852.5604" y1="55.3418" x2="-848.1479" y2="59.924" gradientTransform="matrix(0.9995 -3.191452e-02 3.191452e-02 0.9995 7.1038 -123.2808)">
	<stop  offset="0" style="stop-color:#F5D1C1"/>
	<stop  offset="1" style="stop-color:#D52A27"/>
</linearGradient>
<path fill="url(#SVGID_31_)" d="M-861.9-26.5l36.4-28.2c0,0,3.1,0.3,2.5,3l-25.8,23C-848.8-28.7-857.1-28.9-861.9-26.5z"/>
<linearGradient id="SVGID_32_" gradientUnits="userSpaceOnUse" x1="-737.3953" y1="59.0191" x2="-732.9828" y2="63.6013" gradientTransform="matrix(0.9995 -3.191452e-02 3.191452e-02 0.9995 7.1038 -123.2808)">
	<stop  offset="0" style="stop-color:#FFEED0"/>
	<stop  offset="1" style="stop-color:#FDBD26"/>
</linearGradient>
<path fill="url(#SVGID_32_)" d="M-746.6-26.5l36.4-28.2c0,0,3.1,0.3,2.5,3l-25.8,23C-733.5-28.7-741.9-28.9-746.6-26.5z"/>
<linearGradient id="SVGID_33_" gradientUnits="userSpaceOnUse" x1="-636.7059" y1="62.2342" x2="-632.2935" y2="66.8164" gradientTransform="matrix(0.9995 -3.191452e-02 3.191452e-02 0.9995 7.1038 -123.2808)">
	<stop  offset="0" style="stop-color:#E0EED3"/>
	<stop  offset="1" style="stop-color:#70BE44"/>
</linearGradient>
<path fill="url(#SVGID_33_)" d="M-645.9-26.5l36.4-28.2c0,0,3.1,0.3,2.5,3l-25.8,23C-632.8-28.7-641.1-28.9-645.9-26.5z"/>
<linearGradient id="SVGID_34_" gradientUnits="userSpaceOnUse" x1="-367.9341" y1="72.8326" x2="-363.5216" y2="77.4148" gradientTransform="matrix(0.9995 -3.191452e-02 3.191452e-02 0.9995 7.1038 -123.2808)">
	<stop  offset="0" style="stop-color:#FFFFFF"/>
	<stop  offset="1" style="stop-color:#A7A9AC"/>
</linearGradient>
<path fill="url(#SVGID_34_)" d="M-376.9-24.5l36.4-28.2c0,0,3.1,0.3,2.5,3l-25.8,23C-363.8-26.7-372.2-26.8-376.9-24.5z"/>
<linearGradient id="SVGID_35_" gradientUnits="userSpaceOnUse" x1="-483.2213" y1="-31.4642" x2="-473.5547" y2="-20.4642">
	<stop  offset="0" style="stop-color:#DCB1D8"/>
	<stop  offset="1" style="stop-color:#F459E4"/>
</linearGradient>
<path fill="url(#SVGID_35_)" d="M-499.4-14.3l36.4-28.2c0,0,3.1,0.3,2.5,3l-25.8,23C-486.3-16.5-494.6-16.7-499.4-14.3z"/>
<path fill="#FFFFFF" stroke="#231F20" stroke-miterlimit="10" d="M-228.7-24.5l36.4-28.2c0,0,3.1,0.3,2.5,3l-25.8,23
	C-215.6-26.7-223.9-26.8-228.7-24.5z"/>
<radialGradient id="SVGID_36_" cx="-1240.8899" cy="-37.6511" r="122.7732" gradientUnits="userSpaceOnUse">
	<stop  offset="0" style="stop-color:#29AAE1"/>
	<stop  offset="1" style="stop-color:#13558A"/>
</radialGradient>
<path fill="url(#SVGID_36_)" d="M-1148.7,24.4c1.2-0.6,2.1-1.9,0.8-4.9c-2.4-5.4-11-12.1-11-12.1c-10.8-8-24.5-11.5-38.2-8.3
	c-22.2,5.1-31.3,19.5-34.9,38.1c-0.6,9.4-0.1,12.9,2.5,19.2c10.6,27,91.5-4.6,80.9-31.6C-1148.5,24.7-1148.6,24.6-1148.7,24.4z
	 M-1190.9,40.1c0,0-0.7,5.2-2.8,10.8s-10.5,7.9-15.5,8.1c-5.1,0.2-19.7-6.3-19.7-6.3c-4-5.4-1.8-17.7-1.2-20.8
	c0.6-3.1,5.6-13.5,8.4-11s12.2,3.1,22,4.9C-1189.8,27.7-1190.9,40.1-1190.9,40.1z"/>
<radialGradient id="SVGID_37_" cx="-778.3881" cy="-37.6511" r="122.7732" gradientUnits="userSpaceOnUse">
	<stop  offset="0" style="stop-color:#FFEED0"/>
	<stop  offset="1" style="stop-color:#FDBD26"/>
</radialGradient>
<path fill="url(#SVGID_37_)" d="M-686.2,24.4c1.2-0.6,2.1-1.9,0.8-4.9c-2.4-5.4-11-12.1-11-12.1c-10.8-8-24.5-11.5-38.2-8.3
	c-22.2,5.1-31.3,19.5-34.9,38.1c-0.6,9.4-0.1,12.9,2.5,19.2c10.6,27,91.5-4.6,80.9-31.6C-686,24.7-686.1,24.6-686.2,24.4z
	 M-728.4,40.1c0,0-0.7,5.2-2.8,10.8c-2.1,5.6-10.5,7.9-15.5,8.1c-5.1,0.2-19.7-6.3-19.7-6.3c-4-5.4-1.8-17.7-1.2-20.8
	s5.6-13.5,8.4-11c2.8,2.4,12.2,3.1,22,4.9C-727.3,27.7-728.4,40.1-728.4,40.1z"/>
<radialGradient id="SVGID_38_" cx="-663.8158" cy="-37.6511" r="122.7732" gradientUnits="userSpaceOnUse">
	<stop  offset="0" style="stop-color:#E0EED3"/>
	<stop  offset="1" style="stop-color:#70BE44"/>
</radialGradient>
<path fill="url(#SVGID_38_)" d="M-571.6,24.4c1.2-0.6,2.1-1.9,0.8-4.9c-2.4-5.4-11-12.1-11-12.1c-10.8-8-24.5-11.5-38.2-8.3
	c-22.2,5.1-31.3,19.5-34.9,38.1c-0.6,9.4-0.1,12.9,2.5,19.2c10.6,27,91.5-4.6,80.9-31.6C-571.5,24.7-571.5,24.6-571.6,24.4z
	 M-613.8,40.1c0,0-0.7,5.2-2.8,10.8c-2.1,5.6-10.5,7.9-15.5,8.1c-5.1,0.2-19.7-6.3-19.7-6.3c-4-5.4-1.8-17.7-1.2-20.8
	c0.6-3.1,5.6-13.5,8.4-11s12.2,3.1,22,4.9C-612.8,27.7-613.8,40.1-613.8,40.1z"/>
<radialGradient id="SVGID_39_" cx="-414.0704" cy="-35.6358" r="122.7732" gradientUnits="userSpaceOnUse">
	<stop  offset="0" style="stop-color:#FFFFFF"/>
	<stop  offset="1" style="stop-color:#BCBEC0"/>
</radialGradient>
<path fill="url(#SVGID_39_)" d="M-321.8,26.5c1.2-0.6,2.1-1.9,0.8-4.9c-2.4-5.4-11-12.1-11-12.1c-10.8-8-24.5-11.5-38.2-8.3
	c-22.2,5.1-31.3,19.5-34.9,38.1c-0.6,9.4-0.1,12.9,2.5,19.2c10.6,27,91.5-4.6,80.9-31.6C-321.7,26.7-321.8,26.6-321.8,26.5z
	 M-364,42.1c0,0-0.7,5.2-2.8,10.8c-2.1,5.6-10.5,7.9-15.5,8.1c-5.1,0.2-19.7-6.3-19.7-6.3c-4-5.4-1.8-17.7-1.2-20.8
	c0.6-3.1,5.6-13.5,8.4-11c2.8,2.4,12.2,3.1,22,4.9C-363,29.7-364,42.1-364,42.1z"/>
<radialGradient id="SVGID_40_" cx="-1231.5912" cy="202.1106" r="122.7732" gradientUnits="userSpaceOnUse">
	<stop  offset="0" style="stop-color:#FFFFFF"/>
	<stop  offset="1" style="stop-color:#E6E7E8"/>
</radialGradient>
<path fill="url(#SVGID_40_)" d="M-1139.4,264.2c1.2-0.6,2.1-1.9,0.8-4.9c-2.4-5.4-11-12.1-11-12.1c-10.8-8-24.5-11.5-38.2-8.3
	c-22.2,5.1-31.3,19.5-34.9,38.1c-0.6,9.4-0.1,12.9,2.5,19.2c10.6,27,91.5-4.6,80.9-31.6C-1139.2,264.5-1139.3,264.3-1139.4,264.2z
	 M-1181.6,279.9c0,0-0.7,5.2-2.8,10.8c-2.1,5.6-10.5,7.9-15.5,8.1c-5.1,0.2-19.7-6.3-19.7-6.3c-4-5.4-1.8-17.7-1.2-20.8
	c0.6-3.1,5.6-13.5,8.4-11c2.8,2.4,12.2,3.1,22,4.9C-1180.5,267.4-1181.6,279.9-1181.6,279.9z"/>
<path fill="#FFFFFF" stroke="#231F20" stroke-miterlimit="10" d="M-196.5,26.5c1.2-0.6,2.1-1.9,0.8-4.9c-2.4-5.4-11-12.1-11-12.1
	c-10.8-8-24.5-11.5-38.2-8.3c-22.2,5.1-31.3,19.5-34.9,38.1c-0.6,9.4-0.1,12.9,2.5,19.2c10.6,27,91.5-4.6,80.9-31.6
	C-196.4,26.7-196.4,26.6-196.5,26.5z M-238.7,42.1c0,0-0.7,5.2-2.8,10.8c-2.1,5.6-10.5,7.9-15.5,8.1c-5.1,0.2-19.7-6.3-19.7-6.3
	c-4-5.4-1.8-17.7-1.2-20.8c0.6-3.1,5.6-13.5,8.4-11c2.8,2.4,12.2,3.1,22,4.9C-237.7,29.7-238.7,42.1-238.7,42.1z"/>
<radialGradient id="SVGID_41_" cx="-1118.1635" cy="-37.6511" r="122.7732" gradientUnits="userSpaceOnUse">
	<stop  offset="0" style="stop-color:#C6E9FA"/>
	<stop  offset="1" style="stop-color:#00ADEE"/>
</radialGradient>
<path fill="url(#SVGID_41_)" d="M-1025.9,24.4c1.2-0.6,2.1-1.9,0.8-4.9c-2.4-5.4-11-12.1-11-12.1c-10.8-8-24.5-11.5-38.2-8.3
	c-22.2,5.1-31.3,19.5-34.9,38.1c-0.6,9.4-0.1,12.9,2.5,19.2c10.6,27,91.5-4.6,80.9-31.6C-1025.8,24.7-1025.9,24.6-1025.9,24.4z
	 M-1068.1,40.1c0,0-0.7,5.2-2.8,10.8s-10.5,7.9-15.5,8.1c-5.1,0.2-19.7-6.3-19.7-6.3c-4-5.4-1.8-17.7-1.2-20.8
	c0.6-3.1,5.6-13.5,8.4-11s12.2,3.1,22,4.9C-1067.1,27.7-1068.1,40.1-1068.1,40.1z"/>
<radialGradient id="SVGID_42_" cx="-1010.1689" cy="-37.6511" r="122.7732" gradientUnits="userSpaceOnUse">
	<stop  offset="0" style="stop-color:#D8D1E7"/>
	<stop  offset="1" style="stop-color:#9C89C0"/>
</radialGradient>
<path fill="url(#SVGID_42_)" d="M-917.9,24.4c1.2-0.6,2.1-1.9,0.8-4.9c-2.4-5.4-11-12.1-11-12.1c-10.8-8-24.5-11.5-38.2-8.3
	c-22.2,5.1-31.3,19.5-34.9,38.1c-0.6,9.4-0.1,12.9,2.5,19.2c10.6,27,91.5-4.6,80.9-31.6C-917.8,24.7-917.9,24.6-917.9,24.4z
	 M-960.1,40.1c0,0-0.7,5.2-2.8,10.8c-2.1,5.6-10.5,7.9-15.5,8.1c-5.1,0.2-19.7-6.3-19.7-6.3c-4-5.4-1.8-17.7-1.2-20.8
	c0.6-3.1,5.6-13.5,8.4-11s12.2,3.1,22,4.9C-959.1,27.7-960.1,40.1-960.1,40.1z"/>
<radialGradient id="SVGID_43_" cx="-890.8158" cy="-37.6511" r="122.7732" gradientUnits="userSpaceOnUse">
	<stop  offset="0" style="stop-color:#F5D1C1"/>
	<stop  offset="1" style="stop-color:#F06050"/>
</radialGradient>
<path fill="url(#SVGID_43_)" d="M-798.6,24.4c1.2-0.6,2.1-1.9,0.8-4.9c-2.4-5.4-11-12.1-11-12.1c-10.8-8-24.5-11.5-38.2-8.3
	c-22.2,5.1-31.3,19.5-34.9,38.1c-0.6,9.4-0.1,12.9,2.5,19.2c10.6,27,91.5-4.6,80.9-31.6C-798.5,24.7-798.5,24.6-798.6,24.4z
	 M-840.8,40.1c0,0-0.7,5.2-2.8,10.8c-2.1,5.6-10.5,7.9-15.5,8.1c-5.1,0.2-19.7-6.3-19.7-6.3c-4-5.4-1.8-17.7-1.2-20.8
	c0.6-3.1,5.6-13.5,8.4-11s12.2,3.1,22,4.9C-839.8,27.7-840.8,40.1-840.8,40.1z"/>
<linearGradient id="SVGID_44_" gradientUnits="userSpaceOnUse" x1="-1529.5846" y1="716.0698" x2="-1523.1315" y2="722.7711" gradientTransform="matrix(0.8957 0.1136 -0.14 1.1042 263.519 -577.1615)">
	<stop  offset="0" style="stop-color:#404041"/>
	<stop  offset="1" style="stop-color:#000000"/>
</linearGradient>
<path fill="url(#SVGID_44_)" d="M-1211,42.4c-0.7,5.6,1.2,10,4.3,9.8c3.1-0.2,6.2-4.9,6.9-10.6s-1.2-10.1-4.3-9.8
	C-1207.3,32.1-1210.3,36.8-1211,42.4z"/>
<linearGradient id="SVGID_45_" gradientUnits="userSpaceOnUse" x1="-1009.7197" y1="910.7208" x2="-1004.032" y2="916.6272" gradientTransform="matrix(0.9888 0.1491 -0.1509 1.001 -87.405 -725.2396)">
	<stop  offset="0" style="stop-color:#404041"/>
	<stop  offset="1" style="stop-color:#000000"/>
</linearGradient>
<path opacity="0.9" fill="url(#SVGID_45_)" d="M-1225.1,38.5c-0.8,5.1,0,8.6,1.7,8.3c1.7-0.3,3.8-4.2,4.6-9.3c0.8-5.1,0-9-1.8-8.7
	C-1222.3,29-1224.3,33.4-1225.1,38.5z"/>
<linearGradient id="SVGID_46_" gradientUnits="userSpaceOnUse" x1="-1188.1246" y1="71.6408" x2="-1183.7122" y2="76.2229" gradientTransform="matrix(0.9995 -3.191452e-02 3.191452e-02 0.9995 7.1038 -123.2808)">
	<stop  offset="0" style="stop-color:#6D6E71"/>
	<stop  offset="1" style="stop-color:#000000"/>
</linearGradient>
<path fill="url(#SVGID_46_)" d="M-1196.7,0.5l36.4-28.2c0,0,3.1,0.3,2.5,3l-25.8,23C-1183.6-1.7-1192-1.9-1196.7,0.5z"/>
<path fill="#FFFFFF" stroke="#231F20" stroke-miterlimit="10" d="M-258.7,45.4c-0.7,5.6,1.2,10,4.3,9.8c3.1-0.2,6.2-4.9,6.9-10.6
	s-1.2-10.1-4.3-9.8C-254.9,35.1-258,39.8-258.7,45.4z"/>
<path fill="#FFFFFF" stroke="#231F20" stroke-miterlimit="10" d="M-272.8,41.5c-0.8,5.1,0,8.6,1.7,8.3c1.7-0.3,3.8-4.2,4.6-9.3
	c0.8-5.1,0-9-1.8-8.7C-270,32-272,36.4-272.8,41.5z"/>
<g>
	<g>
		
			<linearGradient id="SVGID_47_" gradientUnits="userSpaceOnUse" x1="-194.6436" y1="-52.6846" x2="-194.1496" y2="-52.6846" gradientTransform="matrix(0.9995 -3.191452e-02 3.191452e-02 0.9995 7.1038 -123.2808)">
			<stop  offset="0" style="stop-color:#F1F1F2"/>
			<stop  offset="1" style="stop-color:#A6A8AB"/>
		</linearGradient>
		<path fill="url(#SVGID_47_)" d="M-188.6-169.4c-0.3-0.4-0.5-0.6-0.5-0.6S-189-169.8-188.6-169.4z"/>
		
			<linearGradient id="SVGID_48_" gradientUnits="userSpaceOnUse" x1="-194.1496" y1="-61.8481" x2="-112.0369" y2="-61.8481" gradientTransform="matrix(0.9995 -3.191452e-02 3.191452e-02 0.9995 7.1038 -123.2808)">
			<stop  offset="0" style="stop-color:#F1F1F2"/>
			<stop  offset="1" style="stop-color:#A6A8AB"/>
		</linearGradient>
		<path fill="url(#SVGID_48_)" d="M-107.7-198.9c0.1-3.2,0-7.5-0.7-9.2c-1.3-2.9-3.9,2-3.9,2l3.4,8.6c-1.6,6.9-9.6,14.3-18.8,21.4
			c-12.4,9.6-24.2,11.8-39.3,13.8c-12.8,1.7-19.8-5-21.7-7.1c2.3,2.7,11.3,13.4,14.1,14.7c3.1,1.4,23.5,6.5,42.2-4.2
			c18.8-10.7,23.2-16.1,24.7-28.4C-107-192.5-107.2-196.3-107.7-198.9z"/>
	</g>
	
		<linearGradient id="SVGID_49_" gradientUnits="userSpaceOnUse" x1="-183.4288" y1="-48.5619" x2="-176.7431" y2="-41.619" gradientTransform="matrix(0.9995 -3.191452e-02 3.191452e-02 0.9995 7.1038 -123.2808)">
		<stop  offset="0" style="stop-color:#6D6E71"/>
		<stop  offset="1" style="stop-color:#000000"/>
	</linearGradient>
	<path fill="url(#SVGID_49_)" d="M-184.9-166.1c0,0,2.1,3.6,6.4,4.1c4.3,0.6,11.7-0.4,11.7-0.4S-177.3-163.6-184.9-166.1z"/>
	<linearGradient id="SVGID_50_" gradientUnits="userSpaceOnUse" x1="-190.7692" y1="-231.5743" x2="-128.3399" y2="-169.9886">
		<stop  offset="0" style="stop-color:#A6A8AB"/>
		<stop  offset="1" style="stop-color:#58595B"/>
	</linearGradient>
	<path fill="url(#SVGID_50_)" d="M-109.7-204.5c1.2-0.6,2.1-1.9,0.8-4.9c-2.4-5.4-11-12.1-11-12.1c-10.8-8-24.5-11.5-38.2-8.3
		c-22.2,5.1-31.3,19.5-34.9,38.1c-0.6,9.4-0.1,12.9,2.5,19.2c10.6,27,91.5-4.6,80.9-31.6C-109.6-204.2-109.6-204.4-109.7-204.5z"/>
</g>
<g>
	<radialGradient id="SVGID_51_" cx="-158.1653" cy="-16.6562" r="104.0588" gradientUnits="userSpaceOnUse">
		<stop  offset="4.926108e-03" style="stop-color:#FFD482"/>
		<stop  offset="1" style="stop-color:#FDBD26"/>
	</radialGradient>
	<path fill="url(#SVGID_51_)" d="M-67.5,26.1c1.2-0.6,2.1-2,0.8-4.9C-69.1,15.8-77.7,9-77.7,9c-10.9-8.1-24.7-11.6-38.5-8.4
		c-22.4,5.2-31.5,19.7-35.2,38.4c-0.6,9.4-0.1,13,2.5,19.4c10.7,27.2,92.4-4.6,81.6-31.8C-67.4,26.4-67.5,26.2-67.5,26.1z
		 M-110.3,41.9c0,0-0.7,5.3-2.8,10.9c-2.1,5.6-10.6,8-15.7,8.2c-5.1,0.2-19.8-6.3-19.8-6.3c-4-5.4-1.8-17.9-1.2-21
		c0.6-3.1,5.6-13.6,8.5-11.1c2.8,2.4,12.3,3.2,22.2,5C-109.3,29.3-110.3,41.9-110.3,41.9z"/>
	<path opacity="0.4" fill="#6D6E71" d="M-111.2,28.5c0,0-2.5,10.2-12.3,12c-20.3,3.7-26.1-0.2-26.6-5.6c-0.5-5.5,4.7-12.4,5.6-14.5
		L-111.2,28.5z"/>
	
		<radialGradient id="SVGID_52_" cx="-6406.6182" cy="48.856" r="59.1462" gradientTransform="matrix(-1 0 0 1 -6570.4678 0)" gradientUnits="userSpaceOnUse">
		<stop  offset="4.926108e-03" style="stop-color:#FFD482"/>
		<stop  offset="1" style="stop-color:#FDBD26"/>
	</radialGradient>
	<path fill="url(#SVGID_52_)" d="M-111.2,28.5c0,0-7.8,6.8-27,2.2s-9-9-7.5-10.2C-144.2,19.3-111.2,28.5-111.2,28.5z"/>
	<path fill="#BA9808" d="M-70.5,23.6c-1.1-0.8-2.5-1.7-4.2-2.6c-1.7-0.9-3.7-1.7-6-2.3c-1.1-0.3-2.4-0.5-3.6-0.8
		c-1.3-0.1-2.6-0.4-3.9-0.4c-2.7-0.1-5.6-0.1-8.6,0.3c-0.7,0.1-1.5,0.2-2.2,0.3c-0.8,0.1-1.5,0.3-2.2,0.5c-0.7,0.2-1.5,0.3-2.2,0.5
		c-0.8,0.2-1.5,0.4-2.3,0.7c-3,1-5.9,2.4-8.5,4.1c-1.6,1.1-3.1,2.3-4.5,3.7c0.6,0.1,1.1,0.3,1.6,0.4c1.2-1.1,2.4-2,3.8-2.9
		c2.5-1.7,5.3-3.1,8.2-4.1c0.7-0.2,1.4-0.5,2.1-0.7c0.7-0.2,1.5-0.4,2.2-0.5c0.7-0.2,1.5-0.4,2.2-0.5c0.7-0.1,1.4-0.2,2.1-0.3
		c1.4-0.3,2.8-0.3,4.2-0.4c1.4-0.2,2.8-0.1,4.1-0.1c1.3,0,2.6,0.2,3.9,0.3c1.2,0.2,2.4,0.4,3.5,0.7c1.1,0.3,2.2,0.6,3.2,0.9
		c1,0.3,1.9,0.7,2.8,1.1c1.7,0.8,3.2,1.6,4.3,2.3c1.1,0.8,2,1.4,2.5,1.9c0.6,0.5,0.8,0.8,0.8,0.8S-68.3,25.3-70.5,23.6z"/>
</g>
<g>
	
		<ellipse transform="matrix(-0.9995 3.191445e-02 -3.191445e-02 -0.9995 -1490.4929 1023.4449)" opacity="0.5" cx="-753.4" cy="499.8" rx="29.7" ry="13"/>
	<polygon fill="#B07F09" points="-765.3,492.2 -760.9,502.6 -755.4,503.6 -754.5,503.1 -753.4,501.1 -759.3,480.7 	"/>
	<polygon fill="#FDBD26" points="-766.1,492.6 -761.8,503 -755.4,503.6 -754.2,501.6 -760.2,481.2 	"/>
	<polygon fill="#FDBD26" points="-786.7,504.6 -784.6,508.9 -783.1,508.9 -785,503 	"/>
	<polygon fill="#B07F09" points="-783.1,508.9 -781.8,505.9 -782.6,502.9 -785,503 	"/>
	<g>
		
			<linearGradient id="SVGID_53_" gradientUnits="userSpaceOnUse" x1="-798.1386" y1="592.1442" x2="-797.7957" y2="592.1442" gradientTransform="matrix(0.9995 -3.191452e-02 3.191452e-02 0.9995 -37.5259 -123.2808)">
			<stop  offset="0" style="stop-color:#F1F1F2"/>
			<stop  offset="1" style="stop-color:#A6A8AB"/>
		</linearGradient>
		<path fill="url(#SVGID_53_)" d="M-816,494.2c-0.2-0.3-0.4-0.4-0.4-0.4S-816.2,494-816,494.2z"/>
		
			<linearGradient id="SVGID_54_" gradientUnits="userSpaceOnUse" x1="-797.7957" y1="585.7827" x2="-740.792" y2="585.7827" gradientTransform="matrix(0.9995 -3.191452e-02 3.191452e-02 0.9995 -37.5259 -123.2808)">
			<stop  offset="0" style="stop-color:#F1F1F2"/>
			<stop  offset="1" style="stop-color:#A6A8AB"/>
		</linearGradient>
		<path fill="url(#SVGID_54_)" d="M-759.8,473.8c0.1-2.2,0-5.2-0.5-6.4c-0.9-2-2.7,1.4-2.7,1.4l2.4,6c-1.1,4.8-6.6,9.9-13,14.9
			c-8.6,6.7-16.8,8.2-27.3,9.6c-8.9,1.2-13.8-3.5-15.1-5c1.6,1.9,7.9,9.3,9.8,10.2c2.2,1,16.3,4.5,29.3-2.9
			c13-7.4,16.1-11.2,17.1-19.7C-759.4,478.2-759.5,475.6-759.8,473.8z"/>
	</g>
	
		<linearGradient id="SVGID_55_" gradientUnits="userSpaceOnUse" x1="-761.8895" y1="543.2976" x2="-758.8262" y2="546.4786" gradientTransform="matrix(0.9995 -3.191452e-02 3.191452e-02 0.9995 -37.5259 -123.2808)">
		<stop  offset="0" style="stop-color:#6D6E71"/>
		<stop  offset="1" style="stop-color:#000000"/>
	</linearGradient>
	<path fill="url(#SVGID_55_)" d="M-794.6,453.9l25.3-19.6c0,0,2.1,0.2,1.7,2.1l-17.9,16C-785.5,452.4-791.3,452.3-794.6,453.9z"/>
	
		<radialGradient id="SVGID_56_" cx="-778.8179" cy="440.4968" r="71.5835" gradientTransform="matrix(1 0 0 1 -44.6297 0)" gradientUnits="userSpaceOnUse">
		<stop  offset="4.926108e-03" style="stop-color:#FFD482"/>
		<stop  offset="1" style="stop-color:#FDBD26"/>
	</radialGradient>
	<path fill="url(#SVGID_56_)" d="M-761.1,469.9c0.8-0.4,1.5-1.3,0.6-3.4c-1.7-3.7-7.6-8.4-7.6-8.4c-7.5-5.6-17-8-26.5-5.8
		c-15.4,3.5-21.7,13.6-24.2,26.4c-0.4,6.5,0,8.9,1.7,13.4c7.4,18.7,63.5-3.2,56.2-21.9C-761,470.1-761,470-761.1,469.9z"/>
	<path fill="#BA9808" d="M-817,489.2c0,0,0-0.5-0.1-1.3c-0.1-0.8,0.1,0.1,0.1-1.4c0-0.7,0-1.5,0-2.3c0-0.8,0.1-1.7,0.1-2.6
		c0-0.9,0.2-1.8,0.2-2.8c0.1-0.9,0.2-1.9,0.4-2.8c0.2-0.9,0.3-1.9,0.5-2.8c0.2-0.9,0.4-1.8,0.7-2.7c0.3-0.9,0.5-1.7,0.8-2.5
		c0.3-0.8,0.5-1.5,0.9-2.2c0.3-0.6,0.6-1.3,0.8-1.8c0.3-0.5,0.5-1,0.7-1.3c0.4-0.7,0.6-1.2,0.6-1.2s-0.3,0.4-0.8,1.1
		c-0.2,0.3-0.6,0.8-0.9,1.2c-0.3,0.5-0.7,1.1-1,1.7c-0.4,0.6-0.7,1.4-1,2.1c-0.4,0.8-0.7,1.6-1,2.5c-0.3,0.9-0.5,1.8-0.8,2.7
		c-0.3,0.9-0.4,1.9-0.6,2.9c-0.2,1-0.3,1.9-0.4,2.9c-0.1,1-0.1,1.9-0.2,2.8c-0.1,1.8,0.1,3.5,0.2,5
		C-817.3,489.4-817,489.2-817,489.2z"/>
	
		<linearGradient id="SVGID_57_" gradientUnits="userSpaceOnUse" x1="-790.3532" y1="595.0062" x2="-785.7119" y2="599.826" gradientTransform="matrix(0.9995 -3.191452e-02 3.191452e-02 0.9995 -37.5259 -123.2808)">
		<stop  offset="0" style="stop-color:#6D6E71"/>
		<stop  offset="1" style="stop-color:#000000"/>
	</linearGradient>
	<path fill="url(#SVGID_57_)" d="M-813.4,496.6c0,0,1.5,2.5,4.4,2.9c3,0.4,8.1-0.3,8.1-0.3S-808.2,498.3-813.4,496.6z"/>
	<path fill="#BA9808" d="M-806,490.9l-0.4-0.2c0.2-0.8,0.3-1.6,0.6-2.5c0.8-3.1,2-6.8,4.1-10.3c2-3.5,4.8-7,8.5-9.5
		c1.8-1.2,3.8-2.2,5.9-2.8c0.5-0.2,1-0.3,1.6-0.5c0.5-0.1,1-0.2,1.5-0.4c0.5-0.1,1-0.3,1.5-0.3c0.5-0.1,1-0.1,1.5-0.2
		c2-0.3,4-0.3,5.9-0.2c0.9,0,1.8,0.2,2.7,0.3c0.9,0.2,1.7,0.3,2.5,0.6c1.6,0.4,3,1,4.1,1.6c1.2,0.6,2.1,1.2,2.9,1.8
		c1.5,1.1,2.2,2,2.2,2s-0.2-0.2-0.6-0.5c-0.4-0.3-1-0.8-1.7-1.3c-0.8-0.5-1.8-1.1-3-1.6c-0.6-0.3-1.2-0.5-1.9-0.7
		c-0.7-0.3-1.4-0.4-2.2-0.6c-0.8-0.2-1.6-0.3-2.4-0.5c-0.9-0.1-1.7-0.2-2.7-0.2c-0.9,0-1.9-0.1-2.8,0.1c-1,0.1-1.9,0.1-2.9,0.3
		c-0.5,0.1-1,0.2-1.5,0.2c-0.5,0.1-1,0.2-1.5,0.3c-0.5,0.1-1,0.2-1.5,0.4c-0.5,0.1-1,0.3-1.5,0.5c-2,0.7-3.9,1.6-5.6,2.8
		c-3.5,2.3-6.3,5.7-8.3,9.1c-2,3.4-3.4,7-4.3,10C-805.6,489.3-805.8,490.1-806,490.9z"/>
	
		<linearGradient id="SVGID_58_" gradientUnits="userSpaceOnUse" x1="-790.2868" y1="575.4705" x2="-777.4212" y2="588.8309" gradientTransform="matrix(0.9995 -3.191452e-02 3.191452e-02 0.9995 -37.5259 -123.2808)">
		<stop  offset="0" style="stop-color:#A6A8AB"/>
		<stop  offset="1" style="stop-color:#58595B"/>
	</linearGradient>
	<path fill="url(#SVGID_58_)" d="M-816.9,489.5c0,0,10.1,4.5,13.7,4.4s9.3-1.8,10.8-5.6s1.9-7.5,1.9-7.5s0.7-8.6-6.1-9.9
		c-6.8-1.3-13.3-1.8-15.3-3.4c-2-1.7-5.4,5.5-5.8,7.7C-818.1,477.2-819.6,485.8-816.9,489.5z"/>
	
		<linearGradient id="SVGID_59_" gradientUnits="userSpaceOnUse" x1="-976.8418" y1="1057.5886" x2="-972.362" y2="1062.2407" gradientTransform="matrix(0.8957 0.1136 -0.14 1.1042 218.8893 -577.1615)">
		<stop  offset="0" style="stop-color:#404041"/>
		<stop  offset="1" style="stop-color:#000000"/>
	</linearGradient>
	<path fill="url(#SVGID_59_)" d="M-807.1,481.5c-0.5,3.9,0.8,7,3,6.8c2.1-0.1,4.3-3.4,4.8-7.3s-0.8-7-3-6.8
		C-804.4,474.3-806.6,477.6-807.1,481.5z"/>
	
		<linearGradient id="SVGID_60_" gradientUnits="userSpaceOnUse" x1="-496.6853" y1="1274.9082" x2="-492.7369" y2="1279.0085" gradientTransform="matrix(0.9888 0.1491 -0.1509 1.001 -132.0347 -725.2396)">
		<stop  offset="0" style="stop-color:#404041"/>
		<stop  offset="1" style="stop-color:#000000"/>
	</linearGradient>
	<path opacity="0.9" fill="url(#SVGID_60_)" d="M-816.8,478.7c-0.5,3.5,0,6,1.2,5.8c1.2-0.2,2.6-2.9,3.2-6.5s0-6.3-1.2-6.1
		C-814.9,472.2-816.3,475.2-816.8,478.7z"/>
	<path opacity="0.4" fill="#6D6E71" d="M-791.1,471.6c0,0-1.7,7-8.4,8.3c-14,2.5-18-0.2-18.3-3.8c-0.3-3.8,3.2-8.6,3.9-10
		L-791.1,471.6z"/>
	
		<radialGradient id="SVGID_61_" cx="-5743.1099" cy="485.5636" r="40.6875" gradientTransform="matrix(-1 0 0 1 -6570.4678 0)" gradientUnits="userSpaceOnUse">
		<stop  offset="4.926108e-03" style="stop-color:#FFD482"/>
		<stop  offset="1" style="stop-color:#FDBD26"/>
	</radialGradient>
	<path fill="url(#SVGID_61_)" d="M-791.1,471.6c0,0-5.4,4.7-18.5,1.5c-13.2-3.2-6.2-6.2-5.2-7C-813.8,465.2-791.1,471.6-791.1,471.6
		z"/>
	<path fill="#BA9808" d="M-735.3,440c0-0.1,0.1-0.3,0.1-0.4c0.3-0.8,0.5-1.5,0.9-2.2c0.3-0.6,0.6-1.3,0.8-1.8c0.3-0.5,0.5-1,0.7-1.3
		c0.4-0.7,0.6-1.2,0.6-1.2s-0.3,0.4-0.8,1.1c-0.2,0.3-0.6,0.8-0.9,1.2c-0.3,0.5-0.7,1.1-1,1.7c-0.4,0.6-0.7,1.4-1,2.1
		c-0.4,0.8-0.7,1.6-1,2.5c-0.1,0.3-0.2,0.6-0.3,1C-736.6,441.8-735.9,440.8-735.3,440z"/>
</g>
<rect x="-1074.1" y="-279.8" fill="#00ADEE" width="49" height="49"/>
<rect x="-977.4" y="-279.8" fill="#7053A2" width="49" height="49"/>
<rect x="-861.9" y="-279.8" fill="#D52A27" width="49" height="49"/>
<rect x="-861.9" y="-214.2" fill="#F06050" width="49" height="49"/>
<rect x="-751.6" y="-279.8" fill="#FDBD26" width="49" height="49"/>
<rect x="-645.9" y="-280.8" fill="#70BE44" width="49" height="49"/>
<rect x="-1074.1" y="-214.2" fill="#44C7F4" width="49" height="49"/>
<rect x="-977.4" y="-214.2" fill="#9C89C0" width="49" height="49"/>
<rect x="-751.6" y="-214.2" fill="#FFD482" width="49" height="49"/>
<rect x="-645.9" y="-215.2" fill="#A8D389" width="49" height="49"/>
<rect x="-1074.1" y="-140.8" fill="#C6E9FA" width="49" height="49"/>
<rect x="-977.4" y="-140.8" fill="#D8D1E7" width="49" height="49"/>
<rect x="-516.3" y="-283.6" fill="#B542A9" width="49" height="49"/>
<rect x="-516.3" y="-218" fill="#F459E4" width="49" height="49"/>
<rect x="-516.3" y="-144.7" fill="#DCB1D8" width="49" height="49"/>
<rect x="-861.9" y="-140.8" fill="#F5D1C1" width="49" height="49"/>
<rect x="-751.6" y="-140.8" fill="#FFEED0" width="49" height="49"/>
<rect x="-645.9" y="-141.8" fill="#E0EED3" width="49" height="49"/>
<linearGradient id="SVGID_62_" gradientUnits="userSpaceOnUse" x1="-92.8692" y1="-37.0836" x2="-89.4577" y2="-33.5409">
	<stop  offset="0" style="stop-color:#E6E7E8"/>
	<stop  offset="1" style="stop-color:#414042"/>
</linearGradient>
<path fill="url(#SVGID_62_)" d="M-89.2-34l7.4-6.7l0.2-0.9l8.9-7.7c-0.2-0.9-0.5-0.9-1.1-1.2l-9.6,7.7l-1.1,0.1l-8,6.2l-1.2-0.1
	l-17.8,13.7c4.8-2.3,13.1-2.2,13.1-2.2l8.8-7.9L-89.2-34z"/>
<path fill="#231F20" d="M84.7,491l20.5-5.1c-1.7-28.9-18.1-51.6-38-51.6s-36.2,22.7-38,51.6l20.5,5.1l-20.6,4
	c1.4,29.4,17.9,52.7,38,52.7s36.6-23.2,38-52.7L84.7,491z"/>
<linearGradient id="SVGID_63_" gradientUnits="userSpaceOnUse" x1="-998.7479" y1="17.4031" x2="-986.0812" y2="56.7365">
	<stop  offset="0" style="stop-color:#404041"/>
	<stop  offset="1" style="stop-color:#000000"/>
</linearGradient>
<path fill="url(#SVGID_63_)" d="M-995.5,48.9c-1.9-2.1-2.6-7.1-2-11.8l2,0.5l0.2-1.1l-1.7-1.8c1.1-4.8,3.6-8.7,6.1-8.6
	c3.2,0.1,5.3,6.1,4.1,13.5l-3.8-0.7l-0.3,1.3l3.3,2.9C-989.6,49.5-993.1,51.5-995.5,48.9z"/>
<linearGradient id="SVGID_64_" gradientUnits="userSpaceOnUse" x1="-976.8369" y1="24.4926" x2="-967.5035" y2="58.4926">
	<stop  offset="0" style="stop-color:#404041"/>
	<stop  offset="1" style="stop-color:#000000"/>
</linearGradient>
<path fill="url(#SVGID_64_)" d="M-975.6,54.1c-2.2-2.1-3.1-7.1-2.3-11.8l2.3,0.5l0.2-1.1l-2-1.8c1.3-4.8,4.2-8.7,7.1-8.6
	c3.7,0.1,6.1,6.1,4.8,13.5l-4.4-0.7l-0.3,1.3l3.8,2.9C-968.8,54.7-972.9,56.7-975.6,54.1z"/>
<path fill="#231F20" d="M177.4,491l20.5-5.1c-1.7-28.9-18.1-51.6-38-51.6c-19.9,0-36.2,22.7-38,51.6l20.5,5.1l-20.6,4
	c1.4,29.4,17.9,52.7,38,52.7c20.1,0,36.6-23.2,38-52.7L177.4,491z"/>
<path fill="#231F20" d="M-515.7,686.3c-17.9,0-33-20.7-35-47.5l18.2-3.5l0.1-5.5l-18.2-4.5c2.4-26.3,17.4-46.6,34.9-46.6
	c17.5,0,32.6,20.3,34.9,46.6l-18.2,4.5l0.1,5.5l18.2,3.5C-482.8,665.6-497.9,686.3-515.7,686.3z"/>
<path fill="#231F20" d="M237.4,521.1v8.5c26.3,0,47.7-21.3,47.7-47.7c0-26.3-21.3-47.7-47.7-47.7v8.5c21.6,0,39.2,17.6,39.2,39.2
	C276.6,503.6,259,521.1,237.4,521.1z"/>
<path fill="#231F20" d="M72,673.6c-28.6,0-51.9-23.3-51.9-51.9v-4.3h17v4.3c0,19.2,15.7,34.9,34.9,34.9s34.9-15.7,34.9-34.9v-4.3h17
	v4.3C123.9,650.3,100.6,673.6,72,673.6z"/>
<path fill="#231F20" d="M254.7,466.6l-0.6-8.5c-26.2,2-45.9,24.9-43.9,51.1c2,26.3,24.9,45.9,51.1,43.9l-0.6-8.5
	c-21.5,1.6-40.4-14.6-42-36.1C217,487.1,233.2,468.2,254.7,466.6z"/>
<rect x="-181" y="605.5" fill="#231F20" width="141.7" height="42.5"/>
<rect x="-337.3" y="605.5" fill="#231F20" width="141.7" height="42.5"/>
<linearGradient id="SVGID_65_" gradientUnits="userSpaceOnUse" x1="-1105.2384" y1="37.6896" x2="-1096.8287" y2="37.6896">
	<stop  offset="0" style="stop-color:#404041"/>
	<stop  offset="1" style="stop-color:#000000"/>
</linearGradient>
<path fill="url(#SVGID_65_)" d="M-1100.5,25.3l3.7,1.2c0,0-3.4,10.8-5,23.5l-3.4-1.5C-1104.5,35.5-1100.5,25.3-1100.5,25.3z"/>
<linearGradient id="SVGID_66_" gradientUnits="userSpaceOnUse" x1="-1089.1532" y1="42.6202" x2="-1080.1664" y2="42.6202">
	<stop  offset="0" style="stop-color:#404041"/>
	<stop  offset="1" style="stop-color:#000000"/>
</linearGradient>
<path fill="url(#SVGID_66_)" d="M-1084.4,28.9l4.3,1.2c0,0-3.8,13.3-5,26.2l-4-1.6C-1088.7,40.3-1084.4,28.9-1084.4,28.9z"/>
<path fill="#231F20" d="M-876.6,29.2l0.2,2c0,0,1.9-2.2,4.3-1.6s3.7,3,3.7,3l1.8-0.9c0,0-1.4-4-5.4-4.4
	C-874.4,26.9-876.6,29.2-876.6,29.2z"/>
<path fill="#231F20" d="M-858.4,34.2l0.3,2.4c0,0,2.7-2.3,6.2-1.3c3.4,1,5.3,4,5.3,4l2.5-0.8c0,0-2-4.9-7.8-6
	C-855.2,31.8-858.4,34.2-858.4,34.2z"/>
<g>
	<g>
		<radialGradient id="SVGID_67_" cx="-8.826" cy="-35.6358" r="122.7732" gradientUnits="userSpaceOnUse">
			<stop  offset="0" style="stop-color:#F5D1C1"/>
			<stop  offset="1" style="stop-color:#F06050"/>
		</radialGradient>
		<path fill="url(#SVGID_67_)" d="M83.4,26.5c1.2-0.6,2.1-1.9,0.8-4.9c-2.4-5.4-11-12.1-11-12.1C62.5,1.5,48.8-2,35.1,1.1
			C12.9,6.3,3.8,20.7,0.2,39.2c-0.6,9.4-0.1,12.9,2.5,19.2c10.6,27,91.5-4.6,80.9-31.6C83.5,26.7,83.5,26.6,83.4,26.5z M41.2,42.1
			c0,0-0.7,5.2-2.8,10.8C36.4,58.5,28,60.9,22.9,61c-5.1,0.2-19.7-6.3-19.7-6.3C-0.7,49.4,1.4,37,2,34c0.6-3.1,5.6-13.5,8.4-11
			c2.8,2.4,12.2,3.1,22,4.9C42.2,29.7,41.2,42.1,41.2,42.1z M58.1,48c0,0,2.8-7.3,15.8-9.7C74,38.3,66.8,48,58.1,48z"/>
		<g>
			<path fill="#903C08" d="M35.1,28.7c0,0,0.1-0.7,0.5-1.9c0.2-0.6,0.5-1.3,0.9-2.1c0.2-0.4,0.4-0.8,0.6-1.2
				c0.2-0.4,0.5-0.9,0.8-1.3c0.6-0.9,1.3-1.8,2-2.8c0.8-0.9,1.7-1.9,2.7-2.8c0.5-0.5,1-0.9,1.5-1.4c0.6-0.4,1.1-0.9,1.7-1.3
				c1.1-0.9,2.4-1.5,3.6-2.3c1.3-0.7,2.6-1.2,3.9-1.8c1.3-0.5,2.7-0.9,4-1.2c1.3-0.3,2.6-0.5,3.8-0.7c1.2-0.2,2.4-0.2,3.4-0.2
				c1.1,0,2-0.1,2.9,0.1c0.9,0.1,1.6,0.2,2.2,0.3c1.2,0.2,1.9,0.3,1.9,0.3S71,8.6,69.8,9c-0.6,0.2-1.3,0.4-2.1,0.6
				c-0.8,0.2-1.7,0.6-2.6,0.9c-0.5,0.2-1,0.3-1.5,0.5c-0.5,0.2-1,0.3-1.6,0.5c-1.1,0.4-2.2,0.8-3.3,1.3c-1.1,0.5-2.3,1-3.4,1.5
				c-1.1,0.6-2.3,1.1-3.4,1.7c-1.1,0.7-2.3,1.2-3.3,1.9c-0.5,0.3-1.1,0.7-1.6,1c-0.5,0.4-1,0.7-1.5,1.1c-1,0.7-1.9,1.4-2.9,2.1
				c-0.4,0.4-0.9,0.7-1.3,1c-0.4,0.3-0.8,0.7-1.2,1c-0.8,0.6-1.5,1.3-2.1,1.8c-0.6,0.6-1.1,1-1.6,1.5c-0.4,0.4-0.8,0.8-1,1
				C35.2,28.6,35.1,28.7,35.1,28.7z"/>
		</g>
		<g>
			<path fill="#903C08" d="M10.3,22.5c0,0,0.2-0.7,0.8-1.9c0.3-0.6,0.6-1.3,1.1-2c0.5-0.8,1-1.6,1.6-2.5c0.6-0.9,1.4-1.8,2.2-2.8
				c0.8-0.9,1.7-1.9,2.8-2.9c1-0.9,2.1-1.9,3.3-2.7c0.6-0.4,1.2-0.9,1.8-1.3l1.9-1.2c1.2-0.8,2.6-1.4,3.9-2c0.6-0.3,1.3-0.6,2-0.8
				c0.7-0.2,1.3-0.5,2-0.7c1.3-0.5,2.6-0.7,3.9-1c1.2-0.3,2.4-0.4,3.5-0.5c1.1-0.1,2.1-0.3,3-0.2c0.9,0,1.7,0,2.3,0.1
				c1.3,0.1,2,0.1,2,0.1s-0.7,0.2-1.9,0.5c-0.6,0.1-1.4,0.3-2.2,0.5c-0.2,0-0.4,0.1-0.7,0.1c-0.2,0.1-0.5,0.1-0.7,0.2
				c-0.5,0.1-1,0.3-1.5,0.4c-1,0.3-2.1,0.5-3.3,1C37.5,3,37,3.2,36.4,3.4c-0.6,0.2-1.2,0.4-1.8,0.7c-1.2,0.5-2.5,1-3.7,1.7
				c-1.2,0.7-2.5,1.2-3.7,2l-1.8,1.1c-0.6,0.4-1.1,0.8-1.7,1.2c-1.1,0.8-2.2,1.6-3.3,2.4c-0.5,0.4-1,0.8-1.5,1.2
				c-0.5,0.4-1,0.8-1.4,1.2c-0.9,0.8-1.7,1.6-2.5,2.4c-1.5,1.5-2.7,2.8-3.5,3.8c-0.4,0.5-0.7,0.9-0.9,1.1
				C10.4,22.3,10.3,22.5,10.3,22.5z"/>
		</g>
	</g>
	<path fill="none" stroke="#903C08" stroke-miterlimit="10" d="M56,49.3c0,0,3.6-9.3,20.1-12.3C76.1,37,67,49.3,56,49.3z"/>
</g>
<linearGradient id="SVGID_68_" gradientUnits="userSpaceOnUse" x1="-901.3761" y1="59.0431" x2="-890.191" y2="59.0431" gradientTransform="matrix(0.7301 0.4492 -0.2031 0.9792 -93.8736 378.9529)">
	<stop  offset="0" style="stop-color:#404041"/>
	<stop  offset="1" style="stop-color:#000000"/>
</linearGradient>
<path fill="url(#SVGID_68_)" d="M-757.5,45.2c-4.8-3.1-8.1-4.5-8.1-4.5c0.9-6.6,3.2-15.6,3.2-15.6c4.1,1.6,7.8,2.8,7.8,2.8
	S-756.4,36.6-757.5,45.2z"/>
<linearGradient id="SVGID_69_" gradientUnits="userSpaceOnUse" x1="-855.798" y1="47.5774" x2="-844.6511" y2="47.5774" gradientTransform="matrix(1.0022 0.5057 -0.2031 0.9792 121.8283 423.6993)">
	<stop  offset="0" style="stop-color:#404041"/>
	<stop  offset="1" style="stop-color:#000000"/>
</linearGradient>
<path fill="url(#SVGID_69_)" d="M-736.1,51.6c-7-3.7-11-4.8-11-4.8c0.8-7,3.4-16.4,3.4-16.4c5.9,2,11.1,3.5,11.1,3.5
	S-735.1,42.5-736.1,51.6z"/>
<linearGradient id="SVGID_70_" gradientUnits="userSpaceOnUse" x1="-777.7724" y1="-25.612" x2="-739.0224" y2="16.263" gradientTransform="matrix(0.8253 0.4953 -0.2165 0.9763 -11.0674 438.2827)">
	<stop  offset="0" style="stop-color:#404041"/>
	<stop  offset="1" style="stop-color:#000000"/>
</linearGradient>
<path fill="url(#SVGID_70_)" d="M-642.8,43.1l-6.7-2.7c-1.4-0.5-2.2-2.3-1.8-4l1.3-6.1c0.4-1.7,1.8-2.7,3.3-2.2l7,2.4
	c1.5,0.5,2.4,2.4,2,4.2l-1.6,6.3C-639.7,42.8-641.3,43.7-642.8,43.1z"/>
<linearGradient id="SVGID_71_" gradientUnits="userSpaceOnUse" x1="-765.4009" y1="-38.5337" x2="-726.6509" y2="3.3413" gradientTransform="matrix(0.8834 0.5082 -0.2165 0.9763 35.2443 448.5547)">
	<stop  offset="0" style="stop-color:#404041"/>
	<stop  offset="1" style="stop-color:#000000"/>
</linearGradient>
<path fill="url(#SVGID_71_)" d="M-622.6,50.3l-7.7-3.3c-1.5-0.6-2.3-2.6-1.9-4.3l1.4-6.5c0.4-1.8,1.9-2.9,3.5-2.5l8,2.2
	c1.9,0.5,3.1,2.6,2.6,4.7l-1.8,7.5C-618.9,50.1-620.8,51.1-622.6,50.3z"/>
<g>
	<g>
		<path fill="#58595B" d="M-1159.6,294.9c0,0,0-0.3-0.1-0.8c-0.1-0.5-0.3-1.3-0.5-2.3c-0.5-2-1.2-4.7-2.4-7.9
			c-0.6-1.6-1.3-3.3-2.2-5c-0.8-1.8-1.9-3.5-3-5.3c-1.1-1.8-2.5-3.5-3.9-5.2c-1.5-1.6-3-3.3-4.7-4.7c-1.7-1.5-3.5-2.8-5.3-4
			c-0.9-0.6-1.9-1.1-2.8-1.7c-1-0.5-1.9-1-2.9-1.5c-1-0.4-1.9-0.8-2.9-1.2c-0.9-0.4-1.9-0.7-2.8-1c-0.9-0.4-1.8-0.6-2.7-0.9
			c-0.9-0.3-1.7-0.5-2.6-0.7c-1.7-0.4-3.2-0.8-4.6-1c-1.4-0.3-2.6-0.5-3.6-0.7c-2-0.3-3.2-0.5-3.2-0.5s1.2,0,3.2-0.1
			c1,0,2.3,0,3.7,0.1c0.7,0.1,1.5,0.1,2.3,0.2c0.8,0.1,1.6,0.2,2.5,0.3c0.9,0.1,1.8,0.3,2.7,0.5c0.9,0.2,1.9,0.4,2.9,0.7
			c1,0.3,2,0.5,3,0.9c1,0.4,2,0.7,3.1,1.1c1,0.5,2.1,0.9,3.1,1.4c1,0.5,2.1,1.1,3.1,1.7c2,1.3,4,2.6,5.8,4.2c1.8,1.5,3.5,3.3,5,5.1
			c1.5,1.8,2.8,3.7,3.9,5.7c1.1,1.9,2.1,3.9,2.8,5.8c0.8,1.9,1.3,3.7,1.8,5.4c0.9,3.4,1.3,6.3,1.4,8.4c0.1,1,0.1,1.8,0.1,2.4
			C-1159.6,294.7-1159.6,294.9-1159.6,294.9z"/>
	</g>
	<g>
		<path fill="#58595B" d="M-1140.7,278.2c0,0-0.6-1-1.7-2.7c-1.1-1.7-2.7-4-4.9-6.6c-1.1-1.3-2.3-2.7-3.6-4.1
			c-1.3-1.4-2.8-2.8-4.3-4.2c-1.6-1.4-3.2-2.8-5-4.1c-0.9-0.7-1.8-1.3-2.7-1.9c-0.9-0.6-1.9-1.2-2.8-1.8c-1-0.6-1.9-1.2-2.9-1.6
			c-1-0.5-2-1-3-1.5c-1-0.5-2-0.9-3-1.3c-1-0.4-2-0.8-3-1.1c-1-0.4-2-0.6-2.9-0.9c-0.5-0.1-1-0.3-1.4-0.4c-0.5-0.1-1-0.2-1.4-0.3
			c-1.9-0.5-3.7-0.8-5.3-1.1c-0.8-0.1-1.6-0.2-2.4-0.3c-0.4-0.1-0.8-0.1-1.1-0.2c-0.4,0-0.7-0.1-1.1-0.1c-1.4-0.1-2.6-0.3-3.6-0.3
			c-2-0.1-3.1-0.2-3.1-0.2s1.1-0.2,3.1-0.4c1-0.1,2.2-0.2,3.6-0.2c1.4-0.1,3,0,4.7,0c1.7,0.2,3.6,0.3,5.6,0.6c0.5,0.1,1,0.2,1.5,0.2
			c0.5,0.1,1,0.2,1.5,0.3c1,0.2,2.1,0.5,3.1,0.8c1.1,0.3,2.1,0.6,3.2,1c0.5,0.2,1.1,0.4,1.6,0.6c0.5,0.2,1,0.5,1.6,0.7
			c1.1,0.4,2.1,1,3.1,1.5c1.1,0.5,2.1,1.1,3.1,1.7c1,0.6,2,1.3,2.9,1.9c0.9,0.7,1.9,1.3,2.8,2.1c0.4,0.4,0.9,0.7,1.3,1.1
			c0.4,0.4,0.9,0.8,1.3,1.1c0.9,0.7,1.6,1.5,2.4,2.3c1.5,1.5,2.9,3.1,4.2,4.7c1.3,1.5,2.3,3.1,3.3,4.5c1.9,2.9,3.2,5.5,4,7.3
			c0.4,0.9,0.7,1.7,0.9,2.2C-1140.8,277.9-1140.7,278.2-1140.7,278.2z"/>
	</g>
	<g>
		<path fill="#58595B" d="M-1148.2,287c0,0-0.4-1.1-1.2-2.9c-0.8-1.8-2.1-4.4-3.9-7.3c-0.9-1.5-2-3-3.1-4.5
			c-1.2-1.5-2.5-3.1-3.9-4.7c-0.7-0.8-1.5-1.5-2.2-2.3c-0.8-0.7-1.6-1.5-2.4-2.2c-0.8-0.7-1.7-1.5-2.5-2.2c-0.9-0.7-1.8-1.4-2.7-2
			c-0.9-0.7-1.8-1.3-2.8-1.9c-0.9-0.6-1.9-1.2-2.8-1.7c-1-0.5-1.9-1-2.9-1.6c-1-0.5-1.9-0.9-2.9-1.4c-1-0.4-1.9-0.8-2.9-1.2
			c-0.9-0.4-1.9-0.7-2.8-1.1c-0.9-0.4-1.8-0.6-2.7-0.9c-0.9-0.3-1.7-0.6-2.5-0.8c-1.6-0.5-3.1-0.9-4.5-1.2c-1.4-0.3-2.5-0.7-3.5-0.8
			c-2-0.4-3.1-0.7-3.1-0.7s1.2,0,3.2,0.1c1,0,2.2,0.1,3.6,0.3c1.4,0.1,3,0.4,4.7,0.7c0.9,0.1,1.7,0.4,2.7,0.6
			c0.9,0.2,1.9,0.4,2.8,0.7c1,0.3,2,0.6,3,0.9c1,0.3,2,0.7,3,1.1c1,0.4,2,0.9,3.1,1.3c1,0.5,2,1,3.1,1.6c1,0.6,2,1.2,3,1.8
			c1,0.7,2,1.3,2.9,2c0.9,0.7,1.9,1.4,2.8,2.2c0.9,0.7,1.8,1.5,2.6,2.3c1.7,1.6,3.2,3.3,4.6,5c1.4,1.7,2.6,3.5,3.7,5.2
			c1.1,1.7,2,3.4,2.7,5c1.5,3.2,2.4,5.9,3,7.9c0.3,1,0.4,1.8,0.5,2.3C-1148.3,286.7-1148.2,287-1148.2,287z"/>
	</g>
</g>
<radialGradient id="SVGID_72_" cx="-1089.5912" cy="202.1106" r="122.7732" gradientUnits="userSpaceOnUse">
	<stop  offset="0" style="stop-color:#FFFFFF"/>
	<stop  offset="1" style="stop-color:#E6E7E8"/>
</radialGradient>
<path fill="url(#SVGID_72_)" d="M-997.4,264.2c1.2-0.6,2.1-1.9,0.8-4.9c-2.4-5.4-11-12.1-11-12.1c-10.8-8-24.5-11.5-38.2-8.3
	c-22.2,5.1-31.3,19.5-34.9,38.1c-0.6,9.4-0.1,12.9,2.5,19.2c10.6,27,91.5-4.6,80.9-31.6C-997.2,264.5-997.3,264.3-997.4,264.2z
	 M-1039.6,279.9c0,0-0.7,5.2-2.8,10.8c-2.1,5.6-10.5,7.9-15.5,8.1c-5.1,0.2-19.7-6.3-19.7-6.3c-4-5.4-1.8-17.7-1.2-20.8
	c0.6-3.1,5.6-13.5,8.4-11c2.8,2.4,12.2,3.1,22,4.9C-1038.5,267.4-1039.6,279.9-1039.6,279.9z"/>
<radialGradient id="SVGID_73_" cx="-568.5123" cy="-43.557" r="146.6671" gradientUnits="userSpaceOnUse">
	<stop  offset="0" style="stop-color:#DCB1D8"/>
	<stop  offset="1" style="stop-color:#F459E4"/>
</radialGradient>
<path fill="url(#SVGID_73_)" d="M-450.7,26.2c1.2-0.6,2.1-1.9,0.8-4.9c-2.4-5.4-11-12.1-11-12.1c-10.8-8-24.5-11.5-38.2-8.3
	c-22.2,5.1-31.3,19.5-34.9,38.1c-0.6,9.4-0.1,12.9,2.5,19.2c10.6,27,91.5-4.6,80.9-31.6C-450.6,26.5-450.6,26.3-450.7,26.2z
	 M-492.9,41.8c0,0-0.7,5.2-2.8,10.8c-2.1,5.6-10.5,7.9-15.5,8.1c-5.1,0.2-19.7-6.3-19.7-6.3c-4-5.4-1.8-17.7-1.2-20.8
	s5.6-13.5,8.4-11c2.8,2.4,12.2,3.1,22,4.9C-491.9,29.4-492.9,41.8-492.9,41.8z"/>
<g>
	<circle fill="none" stroke="#58595B" stroke-miterlimit="10" cx="-1023.2" cy="283.7" r="7.2"/>
	<ellipse fill="none" stroke="#58595B" stroke-miterlimit="10" cx="-1016.8" cy="274.3" rx="2.5" ry="2.2"/>
	<ellipse fill="none" stroke="#58595B" stroke-miterlimit="10" cx="-1025" cy="272.6" rx="2.5" ry="2.2"/>
	
		<ellipse transform="matrix(-0.7949 0.6068 -0.6068 -0.7949 -1685.0029 1121.9491)" fill="none" stroke="#58595B" stroke-miterlimit="10" cx="-1032.1" cy="276.2" rx="2.5" ry="2.2"/>
	<g>
		<path fill="none" stroke="#58595B" stroke-width="0.9193" stroke-miterlimit="10" d="M-1034,258.5c2.2,2.1,5.8,2,8.1,0.2
			c2-1.6,2.3-4.2,0.7-6.1c-1.6-1.9-5-2.6-7.6-1.2C-1035.7,253-1036.4,256.3-1034,258.5z"/>
		<path fill="none" stroke="#58595B" stroke-width="0.9193" stroke-miterlimit="10" d="M-1031.3,248.9c0.6,0.7,1.8,0.9,2.6,0.4
			c0.8-0.4,1-1.2,0.4-1.9c-0.5-0.7-1.7-0.9-2.5-0.5C-1031.7,247.3-1031.9,248.2-1031.3,248.9z"/>
		<path fill="none" stroke="#58595B" stroke-width="0.9193" stroke-miterlimit="10" d="M-1038.3,250.8c0.8,0.8,2.3,0.9,3.3,0.4
			c1-0.5,1.3-1.5,0.6-2.2c-0.7-0.7-2.1-1-3.2-0.5C-1038.8,249-1039.1,250-1038.3,250.8z"/>
		<path fill="none" stroke="#58595B" stroke-width="0.9193" stroke-miterlimit="10" d="M-1041,257c1.4,0.2,2.8-0.5,3.2-1.5
			c0.4-1-0.3-2-1.5-2.3c-1.3-0.3-2.8,0.3-3.3,1.4C-1043.2,255.7-1042.4,256.8-1041,257z"/>
	</g>
	<g>
		<path fill="none" stroke="#58595B" stroke-width="0.808" stroke-miterlimit="10" d="M-1059,257.2c2.3,1.3,5.4,0.5,7-1.5
			c1.4-1.8,1.1-4.1-0.6-5.3c-1.8-1.3-4.8-1.2-6.7,0.5C-1061.5,252.9-1061.4,255.8-1059,257.2z"/>
		<path fill="none" stroke="#58595B" stroke-width="0.808" stroke-miterlimit="10" d="M-1058.6,248.4c0.7,0.5,1.7,0.4,2.3-0.2
			c0.6-0.5,0.6-1.3,0-1.7c-0.6-0.4-1.6-0.4-2.2,0.1C-1059.3,247.1-1059.3,248-1058.6,248.4z"/>
		<path fill="none" stroke="#58595B" stroke-width="0.808" stroke-miterlimit="10" d="M-1064.2,251.5c0.8,0.5,2.1,0.3,2.9-0.3
			c0.8-0.6,0.8-1.5,0.1-2c-0.7-0.5-2-0.4-2.8,0.2C-1065,250-1065.1,251-1064.2,251.5z"/>
		<path fill="none" stroke="#58595B" stroke-width="0.808" stroke-miterlimit="10" d="M-1065.3,257.3c1.2-0.1,2.3-1,2.4-1.9
			c0.1-0.9-0.6-1.6-1.8-1.6c-1.2,0-2.4,0.9-2.6,1.9C-1067.4,256.7-1066.5,257.4-1065.3,257.3z"/>
	</g>
</g>
<linearGradient id="SVGID_74_" gradientUnits="userSpaceOnUse" x1="-660.8414" y1="-84.7817" x2="-647.2825" y2="-84.7817" gradientTransform="matrix(0.7755 0.4449 -0.237 0.9863 -36.8136 412.4659)">
	<stop  offset="0" style="stop-color:#404041"/>
	<stop  offset="1" style="stop-color:#000000"/>
</linearGradient>
<path fill="url(#SVGID_74_)" d="M-518.5,39.6c1.2-2.6,0.6-6.1-1.5-7.4c-1-0.6-2-0.6-2.9,0c-0.3-1.3-0.9-2.4-1.8-2.9
	c-1.7-1.1-3.4,0.4-4,3c-0.2,1.2-0.2,2.4,0.1,3.4c0.5,3.9,2,9,2,9s3.8-1,6.4-3C-519.6,41.2-518.9,40.5-518.5,39.6z"/>
<linearGradient id="SVGID_75_" gradientUnits="userSpaceOnUse" x1="-574.9167" y1="-68.8736" x2="-560.0578" y2="-68.8736" gradientTransform="matrix(0.957 0.3152 -0.1008 1.0118 32.2882 292.4142)">
	<stop  offset="0" style="stop-color:#404041"/>
	<stop  offset="1" style="stop-color:#000000"/>
</linearGradient>
<path fill="url(#SVGID_75_)" d="M-496.7,44.8c1-3.1-0.5-6.7-3.2-7.8c-1.3-0.5-2.6-0.2-3.6,0.5c-0.6-1.4-1.6-2.4-2.7-2.9
	c-2.3-0.9-4.2,1.1-4.4,4c-0.1,1.3,0.2,2.6,0.7,3.7c1.3,4.1,4.1,9.4,4.1,9.4s4.6-1.7,7.4-4.4C-497.7,46.7-497.1,45.9-496.7,44.8z"/>
<path fill="#B542A9" d="M-1029.3,545.4c0-7.7-6.3-14-14-14c-3.8,0-7.2,1.5-9.8,4c-2.5-2.5-6-4-9.8-4c-7.7,0-14,6.3-14,14
	c0,3.7,1.5,7.1,3.8,9.6c6.9,10.8,20.7,23.6,20.7,23.6s14.5-13.9,20.4-25.2C-1030.2,551.1-1029.3,548.4-1029.3,545.4z"/>
<g>
	<polygon fill="#1E75BB" points="-1127.7,-148.1 -1128.9,-147.4 -1128.6,-146.4 -1136.2,-131.6 -1130,-116.6 -1122,-115.1 
		-1120.8,-115.8 -1119.1,-118.7 	"/>
	<polygon fill="#0A4F67" points="-1137.4,-130.9 -1131.2,-115.9 -1122,-115.1 -1120.3,-118 -1128.9,-147.4 	"/>
</g>
<polygon fill="#0A4F67" points="-1149.7,-113.7 -1146.8,-107.4 -1144.6,-107.5 -1147.3,-116 "/>
<polygon fill="#1E75BB" points="-1144.6,-107.5 -1142.7,-111.9 -1143.9,-116.1 -1147.3,-116 "/>
<linearGradient id="SVGID_76_" gradientUnits="userSpaceOnUse" x1="-1516.4177" y1="557.0654" x2="-1509.9647" y2="563.7667" gradientTransform="matrix(0.8957 0.1136 -0.14 1.1042 263.519 -577.1615)">
	<stop  offset="0" style="stop-color:#404041"/>
	<stop  offset="1" style="stop-color:#000000"/>
</linearGradient>
<path fill="url(#SVGID_76_)" d="M-1177-131.6c-0.7,5.6,1.2,10,4.3,9.8c3.1-0.2,6.2-4.9,6.9-10.6c0.7-5.7-1.2-10.1-4.3-9.8
	C-1173.2-142-1176.3-137.3-1177-131.6z"/>
<linearGradient id="SVGID_77_" gradientUnits="userSpaceOnUse" x1="-1001.9987" y1="735.6817" x2="-996.311" y2="741.5881" gradientTransform="matrix(0.9888 0.1491 -0.1509 1.001 -87.405 -725.2396)">
	<stop  offset="0" style="stop-color:#404041"/>
	<stop  offset="1" style="stop-color:#000000"/>
</linearGradient>
<path opacity="0.9" fill="url(#SVGID_77_)" d="M-1191.1-135.6c-0.8,5.1,0,8.6,1.7,8.3c1.7-0.3,3.8-4.2,4.6-9.3c0.8-5.1,0-9-1.8-8.7
	C-1188.3-145-1190.3-140.7-1191.1-135.6z"/>
<linearGradient id="SVGID_78_" gradientUnits="userSpaceOnUse" x1="-1148.5363" y1="-101.255" x2="-1144.1238" y2="-96.6728" gradientTransform="matrix(0.9995 -3.191452e-02 3.191452e-02 0.9995 7.1038 -123.2808)">
	<stop  offset="0" style="stop-color:#6D6E71"/>
	<stop  offset="1" style="stop-color:#000000"/>
</linearGradient>
<path fill="url(#SVGID_78_)" d="M-1162.7-173.6l36.4-28.2c0,0,3.1,0.3,2.5,3l-25.8,23C-1149.6-175.8-1157.9-175.9-1162.7-173.6z"/>
<g>
	<polygon fill="#1E75BB" points="-1147.7,-92.3 -1148.9,-91.7 -1148.6,-90.6 -1156.2,-75.8 -1150,-60.9 -1142,-59.4 -1140.8,-60.1 
		-1139.1,-63 	"/>
	<polygon fill="#0A4F67" points="-1157.4,-75.2 -1151.2,-60.2 -1142,-59.4 -1140.3,-62.3 -1148.9,-91.7 	"/>
</g>
<polygon fill="#0A4F67" points="-1169.8,-58 -1166.8,-51.7 -1164.6,-51.8 -1167.3,-60.2 "/>
<polygon fill="#1E75BB" points="-1164.6,-51.8 -1162.8,-56.1 -1163.9,-60.4 -1167.3,-60.2 "/>
<g>
	<g>
		
			<linearGradient id="SVGID_79_" gradientUnits="userSpaceOnUse" x1="-1232.2668" y1="15.2955" x2="-1231.7728" y2="15.2955" gradientTransform="matrix(0.9995 -3.191452e-02 3.191452e-02 0.9995 7.1038 -123.2808)">
			<stop  offset="0" style="stop-color:#F1F1F2"/>
			<stop  offset="1" style="stop-color:#A6A8AB"/>
		</linearGradient>
		<path fill="url(#SVGID_79_)" d="M-1223.5-68.4c-0.3-0.4-0.5-0.6-0.5-0.6S-1223.9-68.7-1223.5-68.4z"/>
		
			<linearGradient id="SVGID_80_" gradientUnits="userSpaceOnUse" x1="-1231.7728" y1="6.132" x2="-1149.6602" y2="6.132" gradientTransform="matrix(0.9995 -3.191452e-02 3.191452e-02 0.9995 7.1038 -123.2808)">
			<stop  offset="0" style="stop-color:#F1F1F2"/>
			<stop  offset="1" style="stop-color:#A6A8AB"/>
		</linearGradient>
		<path fill="url(#SVGID_80_)" d="M-1142.6-97.9c0.1-3.2,0-7.5-0.7-9.2c-1.3-2.9-3.9,2-3.9,2l3.4,8.6c-1.6,6.9-9.6,14.3-18.8,21.4
			c-12.4,9.6-24.2,11.8-39.3,13.8c-12.8,1.7-19.8-5-21.7-7.1c2.3,2.7,11.3,13.4,14.1,14.7c3.1,1.4,23.5,6.5,42.2-4.2
			c18.8-10.7,23.2-16.1,24.7-28.4C-1141.9-91.5-1142.1-95.2-1142.6-97.9z"/>
	</g>
	
		<linearGradient id="SVGID_81_" gradientUnits="userSpaceOnUse" x1="-1221.0521" y1="19.4183" x2="-1214.3665" y2="26.3611" gradientTransform="matrix(0.9995 -3.191452e-02 3.191452e-02 0.9995 7.1038 -123.2808)">
		<stop  offset="0" style="stop-color:#6D6E71"/>
		<stop  offset="1" style="stop-color:#000000"/>
	</linearGradient>
	<path fill="url(#SVGID_81_)" d="M-1219.8-65c0,0,2.1,3.6,6.4,4.1c4.3,0.6,11.7-0.4,11.7-0.4S-1212.3-62.5-1219.8-65z"/>
	<linearGradient id="SVGID_82_" gradientUnits="userSpaceOnUse" x1="-1225.6943" y1="-130.5136" x2="-1163.2651" y2="-68.9279">
		<stop  offset="0" style="stop-color:#A6A8AB"/>
		<stop  offset="1" style="stop-color:#58595B"/>
	</linearGradient>
	<path fill="url(#SVGID_82_)" d="M-1144.6-103.5c1.2-0.6,2.1-1.9,0.8-4.9c-2.4-5.4-11-12.1-11-12.1c-10.8-8-24.5-11.5-38.2-8.3
		c-22.2,5.1-31.3,19.5-34.9,38.1c-0.6,9.4-0.1,12.9,2.5,19.2c10.6,27,91.5-4.6,80.9-31.6C-1144.5-103.2-1144.6-103.3-1144.6-103.5z"
		/>
</g>
<radialGradient id="SVGID_83_" cx="-1236.8639" cy="-165.9844" r="122.7732" gradientUnits="userSpaceOnUse">
	<stop  offset="0" style="stop-color:#29AAE1"/>
	<stop  offset="1" style="stop-color:#13558A"/>
</radialGradient>
<path fill="url(#SVGID_83_)" d="M-1144.6-103.9c1.2-0.6,2.1-1.9,0.8-4.9c-2.4-5.4-11-12.1-11-12.1c-10.8-8-24.5-11.5-38.2-8.3
	c-22.2,5.1-31.3,19.5-34.9,38.1c-0.6,9.4-0.1,12.9,2.5,19.2c10.6,27,91.5-4.6,80.9-31.6C-1144.5-103.6-1144.6-103.7-1144.6-103.9z
	 M-1186.8-88.2c0,0-0.7,5.2-2.8,10.8c-2.1,5.6-10.5,7.9-15.5,8.1c-5.1,0.2-19.7-6.3-19.7-6.3c-4-5.4-1.8-17.7-1.2-20.8
	c0.6-3.1,5.6-13.5,8.4-11c2.8,2.4,12.2,3.1,22,4.9C-1185.8-100.7-1186.8-88.2-1186.8-88.2z"/>
<linearGradient id="SVGID_84_" gradientUnits="userSpaceOnUse" x1="-1543.0364" y1="601.2261" x2="-1536.5834" y2="607.9273" gradientTransform="matrix(0.8957 0.1136 -0.14 1.1042 263.519 -577.1615)">
	<stop  offset="0" style="stop-color:#404041"/>
	<stop  offset="1" style="stop-color:#000000"/>
</linearGradient>
<path fill="url(#SVGID_84_)" d="M-1207-85.9c-0.7,5.6,1.2,10,4.3,9.8c3.1-0.2,6.2-4.9,6.9-10.6c0.7-5.7-1.2-10.1-4.3-9.8
	C-1203.2-96.3-1206.3-91.5-1207-85.9z"/>
<linearGradient id="SVGID_85_" gradientUnits="userSpaceOnUse" x1="-1024.8694" y1="784.7775" x2="-1019.1816" y2="790.684" gradientTransform="matrix(0.9888 0.1491 -0.1509 1.001 -87.405 -725.2396)">
	<stop  offset="0" style="stop-color:#404041"/>
	<stop  offset="1" style="stop-color:#000000"/>
</linearGradient>
<path opacity="0.9" fill="url(#SVGID_85_)" d="M-1221.1-89.8c-0.8,5.1,0,8.6,1.7,8.3c1.7-0.3,3.8-4.2,4.6-9.3c0.8-5.1,0-9-1.8-8.7
	C-1218.3-99.3-1220.3-94.9-1221.1-89.8z"/>
<linearGradient id="SVGID_86_" gradientUnits="userSpaceOnUse" x1="-1180.005" y1="-56.4987" x2="-1175.5925" y2="-51.9165" gradientTransform="matrix(0.9995 -3.191452e-02 3.191452e-02 0.9995 7.1038 -123.2808)">
	<stop  offset="0" style="stop-color:#6D6E71"/>
	<stop  offset="1" style="stop-color:#000000"/>
</linearGradient>
<path fill="url(#SVGID_86_)" d="M-1192.7-127.9l36.4-28.2c0,0,3.1,0.3,2.5,3l-25.8,23C-1179.6-130.1-1188-130.2-1192.7-127.9z"/>
</svg>
