<?xml version="1.0" encoding="utf-8"?>
<!-- Generator: Adobe Illustrator 18.1.1, SVG Export Plug-In . SVG Version: 6.00 Build 0)  -->
<!DOCTYPE svg PUBLIC "-//W3C//DTD SVG 1.1//EN" "http://www.w3.org/Graphics/SVG/1.1/DTD/svg11.dtd">
<svg version="1.1" id="Layer_1" xmlns="http://www.w3.org/2000/svg" xmlns:xlink="http://www.w3.org/1999/xlink" x="0px" y="0px"
	 viewBox="0 0 88.9 104.8" enable-background="new 0 0 88.9 104.8" xml:space="preserve">
<g>
	<polygon fill="#1E75BB" points="80.3,63.7 79.1,64.4 79.4,65.4 71.8,80.2 78,95.2 86.1,96.7 87.3,96 88.9,93.1 	"/>
	<polygon fill="#0A4F67" points="70.6,80.9 76.8,95.8 86.1,96.7 87.7,93.7 79.1,64.4 	"/>
</g>
<polygon fill="#0A4F67" points="58.3,98.1 61.3,104.3 63.4,104.3 60.7,95.8 "/>
<polygon fill="#1E75BB" points="63.4,104.3 65.3,99.9 64.2,95.7 60.7,95.8 "/>
<polygon fill="#808080" points="80.3,63.7 79.1,64.4 79.4,65.4 71.8,80.2 78,95.2 86.1,96.7 87.3,96 88.9,93.1 "/>
<polygon fill="#BFBFBF" points="70.6,80.9 76.8,95.8 86.1,96.7 87.7,93.7 79.1,64.4 "/>
<polygon fill="#808080" points="58.3,98.1 61.3,104.3 63.4,104.3 60.7,95.8 "/>
<polygon fill="#BFBFBF" points="63.4,104.3 65.3,99.9 64.2,95.7 60.7,95.8 "/>
</svg>
