<?xml version="1.0" encoding="utf-8"?>
<!-- Generator: Adobe Illustrator 18.1.1, SVG Export Plug-In . SVG Version: 6.00 Build 0)  -->
<!DOCTYPE svg PUBLIC "-//W3C//DTD SVG 1.1//EN" "http://www.w3.org/Graphics/SVG/1.1/DTD/svg11.dtd">
<svg version="1.1" id="Layer_1" xmlns="http://www.w3.org/2000/svg" xmlns:xlink="http://www.w3.org/1999/xlink" x="0px" y="0px"
	 viewBox="0 0 88.9 104.8" enable-background="new 0 0 88.9 104.8" xml:space="preserve">
<g>
	<g>
		<radialGradient id="SVGID_1_" cx="-8.826" cy="-9.4903" r="122.7732" gradientUnits="userSpaceOnUse">
			<stop  offset="0" style="stop-color:#F5D1C1"/>
			<stop  offset="1" style="stop-color:#F06050"/>
		</radialGradient>
		<path fill="url(#SVGID_1_)" d="M83.4,52.6c1.2-0.6,2.1-1.9,0.8-4.9c-2.4-5.4-11-12.1-11-12.1c-10.8-8-24.5-11.5-38.2-8.3
			C12.9,32.4,3.8,46.8,0.2,65.3c-0.6,9.4-0.1,12.9,2.5,19.2c10.6,27,91.5-4.6,80.9-31.6C83.5,52.9,83.5,52.7,83.4,52.6z M41.2,68.3
			c0,0-0.7,5.2-2.8,10.8C36.4,84.6,28,87,22.9,87.2c-5.1,0.2-19.7-6.3-19.7-6.3c-4-5.4-1.8-17.7-1.2-20.8c0.6-3.1,5.6-13.5,8.4-11
			c2.8,2.4,12.2,3.1,22,4.9C42.2,55.8,41.2,68.3,41.2,68.3z M58.1,74.1c0,0,2.8-7.3,15.8-9.7C74,64.4,66.8,74.1,58.1,74.1z"/>
		<g>
			<path fill="#903C08" d="M35.1,54.9c0,0,0.1-0.7,0.5-1.9c0.2-0.6,0.5-1.3,0.9-2.1c0.2-0.4,0.4-0.8,0.6-1.2
				c0.2-0.4,0.5-0.9,0.8-1.3c0.6-0.9,1.3-1.8,2-2.8c0.8-0.9,1.7-1.9,2.7-2.8c0.5-0.5,1-0.9,1.5-1.4c0.6-0.4,1.1-0.9,1.7-1.3
				c1.1-0.9,2.4-1.5,3.6-2.3c1.3-0.7,2.6-1.2,3.9-1.8c1.3-0.5,2.7-0.9,4-1.2c1.3-0.3,2.6-0.5,3.8-0.7c1.2-0.2,2.4-0.2,3.4-0.2
				c1.1,0,2-0.1,2.9,0.1c0.9,0.1,1.6,0.2,2.2,0.3c1.2,0.2,1.9,0.3,1.9,0.3s-0.7,0.3-1.8,0.7c-0.6,0.2-1.3,0.4-2.1,0.6
				c-0.8,0.2-1.7,0.6-2.6,0.9c-0.5,0.2-1,0.3-1.5,0.5c-0.5,0.2-1,0.3-1.6,0.5c-1.1,0.4-2.2,0.8-3.3,1.3c-1.1,0.5-2.3,1-3.4,1.5
				c-1.1,0.6-2.3,1.1-3.4,1.7c-1.1,0.7-2.3,1.2-3.3,1.9c-0.5,0.3-1.1,0.7-1.6,1c-0.5,0.4-1,0.7-1.5,1.1c-1,0.7-1.9,1.4-2.9,2.1
				c-0.4,0.4-0.9,0.7-1.3,1c-0.4,0.3-0.8,0.7-1.2,1c-0.8,0.6-1.5,1.3-2.1,1.8c-0.6,0.6-1.1,1-1.6,1.5c-0.4,0.4-0.8,0.8-1,1
				C35.2,54.7,35.1,54.9,35.1,54.9z"/>
		</g>
		<g>
			<path fill="#903C08" d="M10.3,48.6c0,0,0.2-0.7,0.8-1.9c0.3-0.6,0.6-1.3,1.1-2c0.5-0.8,1-1.6,1.6-2.5c0.6-0.9,1.4-1.8,2.2-2.8
				c0.8-0.9,1.7-1.9,2.8-2.9c1-0.9,2.1-1.9,3.3-2.7c0.6-0.4,1.2-0.9,1.8-1.3l1.9-1.2c1.2-0.8,2.6-1.4,3.9-2c0.6-0.3,1.3-0.6,2-0.8
				c0.7-0.2,1.3-0.5,2-0.7c1.3-0.5,2.6-0.7,3.9-1c1.2-0.3,2.4-0.4,3.5-0.5c1.1-0.1,2.1-0.3,3-0.2c0.9,0,1.7,0,2.3,0.1
				c1.3,0.1,2,0.1,2,0.1s-0.7,0.2-1.9,0.5c-0.6,0.1-1.4,0.3-2.2,0.5c-0.2,0-0.4,0.1-0.7,0.1c-0.2,0.1-0.5,0.1-0.7,0.2
				c-0.5,0.1-1,0.3-1.5,0.4c-1,0.3-2.1,0.5-3.3,1c-0.6,0.2-1.2,0.4-1.8,0.6c-0.6,0.2-1.2,0.4-1.8,0.7c-1.2,0.5-2.5,1-3.7,1.7
				c-1.2,0.7-2.5,1.2-3.7,2l-1.8,1.1c-0.6,0.4-1.1,0.8-1.7,1.2c-1.1,0.8-2.2,1.6-3.3,2.4c-0.5,0.4-1,0.8-1.5,1.2
				c-0.5,0.4-1,0.8-1.4,1.2c-0.9,0.8-1.7,1.6-2.5,2.4c-1.5,1.5-2.7,2.8-3.5,3.8c-0.4,0.5-0.7,0.9-0.9,1.1
				C10.4,48.5,10.3,48.6,10.3,48.6z"/>
		</g>
	</g>
	<path fill="none" stroke="#903C08" stroke-miterlimit="10" d="M56,75.4c0,0,3.6-9.3,20.1-12.3C76.1,63.1,67,75.4,56,75.4z"/>
</g>
</svg>
