<?xml version="1.0" encoding="utf-8"?>
<!-- Generator: Adobe Illustrator 18.1.1, SVG Export Plug-In . SVG Version: 6.00 Build 0)  -->
<!DOCTYPE svg PUBLIC "-//W3C//DTD SVG 1.1//EN" "http://www.w3.org/Graphics/SVG/1.1/DTD/svg11.dtd">
<svg version="1.1" id="Layer_1" xmlns="http://www.w3.org/2000/svg" xmlns:xlink="http://www.w3.org/1999/xlink" x="0px" y="0px"
	 viewBox="0 0 88.9 104.8" enable-background="new 0 0 88.9 104.8" xml:space="preserve">
<radialGradient id="SVGID_1_" cx="-8.826" cy="-9.9353" r="122.7732" gradientUnits="userSpaceOnUse">
	<stop  offset="0" style="stop-color:#29AAE1"/>
	<stop  offset="1" style="stop-color:#13558A"/>
</radialGradient>
<path fill="url(#SVGID_1_)" d="M83.4,52.2c1.2-0.6,2.1-1.9,0.8-4.9c-2.4-5.4-11-12.1-11-12.1c-10.8-8-24.5-11.5-38.2-8.3
	C12.9,32,3.8,46.4,0.2,64.9c-0.6,9.4-0.1,12.9,2.5,19.2c10.6,27,91.5-4.6,80.9-31.6C83.5,52.4,83.5,52.3,83.4,52.2z M41.2,67.8
	c0,0-0.7,5.2-2.8,10.8c-2.1,5.6-10.5,7.9-15.5,8.1c-5.1,0.2-19.7-6.3-19.7-6.3c-4-5.4-1.8-17.7-1.2-20.8c0.6-3.1,5.6-13.5,8.4-11
	s12.2,3.1,22,4.9C42.2,55.4,41.2,67.8,41.2,67.8z"/>
</svg>
