<?xml version="1.0" encoding="utf-8"?>
<!-- Generator: Adobe Illustrator 18.1.1, SVG Export Plug-In . SVG Version: 6.00 Build 0)  -->
<!DOCTYPE svg PUBLIC "-//W3C//DTD SVG 1.1//EN" "http://www.w3.org/Graphics/SVG/1.1/DTD/svg11.dtd">
<svg version="1.1" id="Layer_1" xmlns="http://www.w3.org/2000/svg" xmlns:xlink="http://www.w3.org/1999/xlink" x="0px" y="0px"
	 viewBox="0 0 88.9 104.8" enable-background="new 0 0 88.9 104.8" xml:space="preserve">
<g>
	<radialGradient id="SVGID_1_" cx="-6.8658" cy="9.804" r="104.0588" gradientUnits="userSpaceOnUse">
		<stop  offset="4.926108e-03" style="stop-color:#FFD482"/>
		<stop  offset="1" style="stop-color:#FDBD26"/>
	</radialGradient>
	<path fill="url(#SVGID_1_)" d="M83.8,52.5c1.2-0.6,2.1-2,0.8-4.9c-2.4-5.4-11.1-12.2-11.1-12.2C62.7,27.3,48.8,23.8,35,27
		C12.7,32.1,3.5,46.7-0.1,65.4c-0.6,9.4-0.1,13,2.5,19.4C13.1,112,94.7,80.2,84,53C83.9,52.8,83.8,52.7,83.8,52.5z M41,68.3
		c0,0-0.7,5.3-2.8,10.9c-2.1,5.6-10.6,8-15.7,8.2c-5.1,0.2-19.8-6.3-19.8-6.3c-4-5.4-1.8-17.9-1.2-21S7.1,46.5,9.9,49
		s12.3,3.2,22.2,5C42,55.8,41,68.3,41,68.3z"/>
	<path opacity="0.4" fill="#6D6E71" d="M40.1,55c0,0-2.5,10.2-12.3,12C7.5,70.6,1.7,66.7,1.3,61.4c-0.5-5.5,4.7-12.4,5.6-14.5
		L40.1,55z"/>
	
		<radialGradient id="SVGID_2_" cx="-4093.7898" cy="75.3163" r="59.1462" gradientTransform="matrix(-1 0 0 1 -4106.3403 0)" gradientUnits="userSpaceOnUse">
		<stop  offset="4.926108e-03" style="stop-color:#FFD482"/>
		<stop  offset="1" style="stop-color:#FDBD26"/>
	</radialGradient>
	<path fill="url(#SVGID_2_)" d="M40.1,55c0,0-7.8,6.8-27,2.2s-9-9-7.5-10.2S40.1,55,40.1,55z"/>
	<path fill="#BA9808" d="M80.8,50.1c-1.1-0.8-2.5-1.7-4.2-2.6c-1.7-0.9-3.7-1.7-6-2.3c-1.1-0.3-2.4-0.5-3.6-0.8
		c-1.3-0.1-2.6-0.4-3.9-0.4c-2.7-0.1-5.6-0.1-8.6,0.3c-0.7,0.1-1.5,0.2-2.2,0.3c-0.8,0.1-1.5,0.3-2.2,0.5c-0.7,0.2-1.5,0.3-2.2,0.5
		c-0.8,0.2-1.5,0.4-2.3,0.7c-3,1-5.9,2.4-8.5,4.1c-1.6,1.1-3.1,2.3-4.5,3.7c0.6,0.1,1.1,0.3,1.6,0.4c1.2-1.1,2.4-2,3.8-2.9
		c2.5-1.7,5.3-3.1,8.2-4.1c0.7-0.2,1.4-0.5,2.1-0.7c0.7-0.2,1.5-0.4,2.2-0.5c0.7-0.2,1.5-0.4,2.2-0.5c0.7-0.1,1.4-0.2,2.1-0.3
		c1.4-0.3,2.8-0.3,4.2-0.4c1.4-0.2,2.8-0.1,4.1-0.1c1.3,0,2.6,0.2,3.9,0.3c1.2,0.2,2.4,0.4,3.5,0.7c1.1,0.3,2.2,0.6,3.2,0.9
		c1,0.3,1.9,0.7,2.8,1.1c1.7,0.8,3.2,1.6,4.3,2.3c1.1,0.8,2,1.4,2.5,1.9C83.7,52.7,84,53,84,53S83,51.7,80.8,50.1z"/>
</g>
</svg>
