<?xml version="1.0" encoding="utf-8"?>
<!-- Generator: Adobe Illustrator 18.1.1, SVG Export Plug-In . SVG Version: 6.00 Build 0)  -->
<!DOCTYPE svg PUBLIC "-//W3C//DTD SVG 1.1//EN" "http://www.w3.org/Graphics/SVG/1.1/DTD/svg11.dtd">
<svg version="1.1" id="Capa_1" xmlns="http://www.w3.org/2000/svg" xmlns:xlink="http://www.w3.org/1999/xlink" x="0px" y="0px"
	 viewBox="140 -140.8 305.8 305.8" enable-background="new 140 -140.8 305.8 305.8" xml:space="preserve">
<g>
	<path fill="#FFFFFF" d="M292.9,123.6c63.6,0,115.4-51.8,115.4-115.4c0-29.8-11.6-58.3-31.9-79.6c0,0,3-6.7,6.6-14.9
		c3.7-8.2-1.6-14.1-11.8-13l-59.7,6.3c-10.2,1.1-13.6,8.7-7.6,16.9l35.3,48.6c6,8.3,13.5,9.3,16.6,2.2l5.7-12.8
		c9.2,13.6,14.3,29.7,14.3,46.4c0,45.7-37.2,82.9-82.9,82.9C247.2,91.1,210,54,210,8.2c0-14.4,3.7-28.6,10.8-41
		c4.4-7.8,1.7-17.7-6.1-22.1c-7.8-4.4-17.7-1.7-22.1,6.1c-9.9,17.3-15.1,37-15.1,57.1C177.6,71.9,229.3,123.6,292.9,123.6z"/>
</g>
</svg>
