<?xml version="1.0" encoding="utf-8"?>
<!-- Generator: Adobe Illustrator 18.1.1, SVG Export Plug-In . SVG Version: 6.00 Build 0)  -->
<!DOCTYPE svg PUBLIC "-//W3C//DTD SVG 1.1//EN" "http://www.w3.org/Graphics/SVG/1.1/DTD/svg11.dtd">
<svg version="1.1" id="Layer_1" xmlns="http://www.w3.org/2000/svg" xmlns:xlink="http://www.w3.org/1999/xlink" x="0px" y="0px"
	 viewBox="0 0 88.9 104.8" enable-background="new 0 0 88.9 104.8" xml:space="preserve">
<g>
	<g>
		
			<linearGradient id="SVGID_1_" gradientUnits="userSpaceOnUse" x1="-8.3226" y1="171.1508" x2="-7.8286" y2="171.1508" gradientTransform="matrix(0.9995 -3.191452e-02 3.191452e-02 0.9995 6.8469 -83.946)">
			<stop  offset="0" style="stop-color:#F1F1F2"/>
			<stop  offset="1" style="stop-color:#A6A8AB"/>
		</linearGradient>
		<path fill="url(#SVGID_1_)" d="M4.5,87.7C4.2,87.3,4,87.1,4,87.1S4.2,87.3,4.5,87.7z"/>
		
			<linearGradient id="SVGID_2_" gradientUnits="userSpaceOnUse" x1="-7.8286" y1="161.9873" x2="74.284" y2="161.9873" gradientTransform="matrix(0.9995 -3.191452e-02 3.191452e-02 0.9995 6.8469 -83.946)">
			<stop  offset="0" style="stop-color:#F1F1F2"/>
			<stop  offset="1" style="stop-color:#A6A8AB"/>
		</linearGradient>
		<path fill="url(#SVGID_2_)" d="M85.4,58.2c0.1-3.2,0-7.5-0.7-9.2c-1.3-2.9-3.9,2-3.9,2l3.4,8.6c-1.6,6.9-9.6,14.3-18.8,21.4
			C53,90.6,41.3,92.8,26.2,94.8c-12.8,1.7-19.8-5-21.7-7.1c2.3,2.7,11.3,13.4,14.1,14.7c3.1,1.4,23.5,6.5,42.2-4.2
			C79.5,87.5,84,82,85.5,69.7C86.1,64.6,85.9,60.9,85.4,58.2z"/>
	</g>
	
		<linearGradient id="SVGID_3_" gradientUnits="userSpaceOnUse" x1="2.8921" y1="175.2735" x2="9.5778" y2="182.2164" gradientTransform="matrix(0.9995 -3.191452e-02 3.191452e-02 0.9995 6.8469 -83.946)">
		<stop  offset="0" style="stop-color:#6D6E71"/>
		<stop  offset="1" style="stop-color:#000000"/>
	</linearGradient>
	<path fill="url(#SVGID_3_)" d="M8.2,91c0,0,2.1,3.6,6.4,4.1c4.3,0.6,11.7-0.4,11.7-0.4S15.8,93.5,8.2,91z"/>
	<linearGradient id="SVGID_4_" gradientUnits="userSpaceOnUse" x1="2.3435" y1="25.5356" x2="64.7728" y2="87.1212">
		<stop  offset="0" style="stop-color:#A6A8AB"/>
		<stop  offset="1" style="stop-color:#58595B"/>
	</linearGradient>
	<path fill="url(#SVGID_4_)" d="M83.4,52.6c1.2-0.6,2.1-1.9,0.8-4.9c-2.4-5.4-11-12.1-11-12.1c-10.8-8-24.5-11.5-38.2-8.3
		C12.9,32.4,3.8,46.8,0.2,65.3c-0.6,9.4-0.1,12.9,2.5,19.2c10.6,27,91.5-4.6,80.9-31.6C83.5,52.9,83.5,52.7,83.4,52.6z"/>
</g>
</svg>
