<?xml version="1.0" encoding="utf-8"?>
<!-- Generator: Adobe Illustrator 18.1.1, SVG Export Plug-In . SVG Version: 6.00 Build 0)  -->
<!DOCTYPE svg PUBLIC "-//W3C//DTD SVG 1.1//EN" "http://www.w3.org/Graphics/SVG/1.1/DTD/svg11.dtd">
<svg version="1.1" id="Layer_1" xmlns="http://www.w3.org/2000/svg" xmlns:xlink="http://www.w3.org/1999/xlink" x="0px" y="0px"
	 viewBox="0 0 156.4 140.7" enable-background="new 0 0 156.4 140.7" xml:space="preserve">
<g>
	<path opacity="0.5" d="M153.1,54.6l-22.8,16.5c-3.3-1.8-6.9-3.2-10.9-4.2c-11.9-4.5-27.8-4.9-44.1-0.2
		c-29.6,8.5-49.3,30.6-43.9,49.5c2.9,10,12.2,17.1,24.8,20.2c11.9,4.5,27.8,4.9,44.1,0.2c29.6-8.5,49.3-30.6,43.9-49.5
		c-1.3-4.6-4-8.6-7.8-11.8l20-16.7C157.1,55.1,153.1,54.6,153.1,54.6z"/>
	<polygon fill="#1E75BB" points="101.8,110.1 109.4,130.1 119.9,132.3 121.5,131.5 123.8,127.8 113.7,88.6 	"/>
	<polygon fill="#29AAE1" points="100.2,110.9 107.8,130.9 119.9,132.3 122.2,128.6 112.1,89.5 	"/>
	<polygon fill="#29AAE1" points="60.4,132.3 64,140.7 66.9,140.7 63.6,129.4 	"/>
	<polygon fill="#1E75BB" points="66.9,140.7 69.5,135.1 68.2,129.4 63.6,129.4 	"/>
	<g>
		<linearGradient id="SVGID_1_" gradientUnits="userSpaceOnUse" x1="4.6168" y1="110.5028" x2="5.2687" y2="110.5028">
			<stop  offset="0" style="stop-color:#FFFFFF"/>
			<stop  offset="1" style="stop-color:#D1D2D3"/>
		</linearGradient>
		<path fill="url(#SVGID_1_)" d="M5.3,110.9c-0.4-0.5-0.7-0.8-0.7-0.8S4.8,110.4,5.3,110.9z"/>
		<linearGradient id="SVGID_2_" gradientUnits="userSpaceOnUse" x1="5.2687" y1="98.4113" x2="113.6184" y2="98.4113">
			<stop  offset="0" style="stop-color:#FFFFFF"/>
			<stop  offset="1" style="stop-color:#D1D2D3"/>
		</linearGradient>
		<path fill="url(#SVGID_2_)" d="M113.2,75.4c0.3-4.3,0.4-9.9-0.6-12.2c-1.6-3.8-5.2,2.5-5.2,2.5l4.2,11.5
			c-2.4,9-13.2,18.5-25.6,27.5c-16.8,12.2-32.4,14.6-52.4,16.6c-16.9,1.7-26-7.5-28.4-10.3c2.9,3.7,14.4,18.2,17.9,19.9
			c4.1,2,30.7,9.6,55.9-3.8c25.2-13.3,31.3-20.3,33.8-36.5C113.9,83.9,113.7,79,113.2,75.4z"/>
	</g>
	<linearGradient id="SVGID_3_" gradientUnits="userSpaceOnUse" x1="19.4149" y1="115.9429" x2="28.2369" y2="125.1042">
		<stop  offset="0" style="stop-color:#6D6E71"/>
		<stop  offset="1" style="stop-color:#000000"/>
	</linearGradient>
	<path fill="url(#SVGID_3_)" d="M10.1,115.5c0,0,2.7,4.8,8.3,5.7c5.6,1,15.5,0,15.5,0S19.9,119.1,10.1,115.5z"/>
	<radialGradient id="SVGID_4_" cx="-10.6354" cy="28.2013" r="131.9451" gradientUnits="userSpaceOnUse">
		<stop  offset="0" style="stop-color:#29AAE1"/>
		<stop  offset="1" style="stop-color:#1E75BB"/>
	</radialGradient>
	<path fill="url(#SVGID_4_)" d="M110.8,68c1.5-0.8,2.9-2.5,1.3-6.4c-2.9-7.2-13.9-16.4-13.9-16.4c-13.9-11-31.8-16.2-50-12.6
		C18.7,38.4,6.1,57,0.6,81.3C-0.6,93.6,0,98.2,3,106.8c12.9,36,120.9-2.2,108-38.2C111,68.4,110.9,68.2,110.8,68z"/>
	<linearGradient id="SVGID_5_" gradientUnits="userSpaceOnUse" x1="73.5174" y1="17.6578" x2="79.3398" y2="23.7041">
		<stop  offset="0" style="stop-color:#6D6E71"/>
		<stop  offset="1" style="stop-color:#000000"/>
	</linearGradient>
	<path fill="url(#SVGID_5_)" d="M48.4,35.6L97.6,0c0,0,4.1,0.6,3.2,4.1l-35,29.2C65.8,33.3,54.8,32.8,48.4,35.6z"/>
	<linearGradient id="SVGID_6_" gradientUnits="userSpaceOnUse" x1="19.5411" y1="78.8103" x2="43.9955" y2="104.2052">
		<stop  offset="0" style="stop-color:#BBBDBF"/>
		<stop  offset="1" style="stop-color:#58595B"/>
	</linearGradient>
	<path fill="url(#SVGID_6_)" d="M3.9,101.9c0,0,19,9.1,25.7,9.1s17.9-2.8,20.8-10c3-7.3,4.1-14.1,4.1-14.1s1.9-16.4-11-19.2
		c-12.8-2.8-25.2-4.1-28.8-7.4C11.1,56.9,4.1,70.5,3.2,74.5C2.3,78.5-1.1,94.6,3.9,101.9z"/>
	
		<linearGradient id="SVGID_7_" gradientUnits="userSpaceOnUse" x1="-261.5083" y1="593.6412" x2="-252.9933" y2="602.4837" gradientTransform="matrix(0.8916 0.1421 -0.1751 1.0991 365.8747 -531.3885)">
		<stop  offset="0" style="stop-color:#404041"/>
		<stop  offset="1" style="stop-color:#000000"/>
	</linearGradient>
	<path fill="url(#SVGID_7_)" d="M23,87.2c-1.2,7.4,1.2,13.3,5.2,13.1c4.1-0.1,8.3-6.2,9.5-13.7c1.2-7.4-1.2-13.3-5.3-13.1
		C28.4,73.7,24.2,79.8,23,87.2z"/>
	
		<linearGradient id="SVGID_8_" gradientUnits="userSpaceOnUse" x1="157.2117" y1="728.0023" x2="164.7167" y2="735.796" gradientTransform="matrix(0.9836 0.1806 -0.1828 0.9957 -14.408 -675.1555)">
		<stop  offset="0" style="stop-color:#404041"/>
		<stop  offset="1" style="stop-color:#000000"/>
	</linearGradient>
	<path opacity="0.9" fill="url(#SVGID_8_)" d="M4.6,81.4c-1.2,6.7-0.4,11.3,1.9,11c2.3-0.3,5.2-5.4,6.4-12.1
		c1.2-6.7,0.4-11.9-2-11.6C8.7,69.1,5.9,74.7,4.6,81.4z"/>
</g>
</svg>
