<?xml version="1.0" encoding="utf-8"?>
<!-- Generator: Adobe Illustrator 18.1.1, SVG Export Plug-In . SVG Version: 6.00 Build 0)  -->
<!DOCTYPE svg PUBLIC "-//W3C//DTD SVG 1.1//EN" "http://www.w3.org/Graphics/SVG/1.1/DTD/svg11.dtd">
<svg version="1.1" id="Layer_1" xmlns="http://www.w3.org/2000/svg" xmlns:xlink="http://www.w3.org/1999/xlink" x="0px" y="0px"
	 viewBox="0 0 24.1 23.7" enable-background="new 0 0 24.1 23.7" xml:space="preserve">
<g>
	<g>
		<path fill="#FBB040" d="M21.3,4.2c0,0-0.5,0.7-1.1,1.4c-0.1,0.2-0.3,0.4-0.4,0.5c-0.2,0.1-0.3,0.2-0.5,0.3
			c-0.3,0.1-0.6,0.1-0.6,0.1c0,0-0.1,0-0.1-0.1c0,0,0-0.3,0.2-0.6c0.1-0.2,0.2-0.3,0.3-0.4c0.2-0.1,0.4-0.2,0.6-0.3
			C20.4,4.5,21.2,4.1,21.3,4.2C21.3,4.1,21.3,4.1,21.3,4.2C21.3,4.1,21.3,4.1,21.3,4.2z"/>
	</g>
	<g>
		<g>
			<path fill="#FBB040" d="M14.1,23.7c0,0-0.3-0.6-0.6-1.3c-0.1-0.2-0.2-0.3-0.2-0.5c0-0.2,0-0.3,0-0.4c0.1-0.3,0.3-0.5,0.3-0.5
				c0,0,0.1,0,0.1,0c0,0,0.2,0.1,0.4,0.3c0.1,0.1,0.2,0.2,0.2,0.4c0,0.2,0,0.3,0,0.5C14.3,23,14.2,23.7,14.1,23.7
				C14.2,23.7,14.2,23.8,14.1,23.7C14.1,23.8,14.1,23.7,14.1,23.7z"/>
		</g>
		<g>
			<path fill="#FBB040" d="M10,0c0,0,0.4,0.9,0.7,1.7c0.1,0.2,0.2,0.4,0.2,0.6c0,0.2,0,0.4,0,0.6c-0.1,0.4-0.2,0.6-0.2,0.6
				c0,0-0.1,0-0.1,0c0,0,0,0,0,0c0,0-0.3-0.2-0.4-0.5C10,2.9,9.9,2.7,9.9,2.5c0-0.2,0-0.4,0-0.7C9.8,0.9,9.9,0,10,0
				C9.9,0,9.9,0,10,0C10,0,10,0,10,0z"/>
		</g>
		<g>
			<path fill="#FBB040" d="M6.1,1.4c0,0,0.6,0.7,1.2,1.4c0.1,0.2,0.3,0.3,0.4,0.5c0.1,0.2,0.2,0.4,0.2,0.6c0.1,0.4,0,0.7,0,0.7
				c0,0,0,0.1-0.1,0c0,0-0.3-0.1-0.6-0.3C7,4.1,6.9,4,6.8,3.8C6.7,3.6,6.6,3.4,6.6,3.2C6.2,2.3,6,1.5,6.1,1.4C6,1.4,6,1.4,6.1,1.4
				C6,1.4,6.1,1.4,6.1,1.4z"/>
		</g>
		<g>
			<path fill="#FBB040" d="M18,22.3c0,0-0.5-0.5-1-1c-0.1-0.1-0.3-0.2-0.4-0.4c-0.1-0.1-0.1-0.3-0.1-0.4c0-0.3,0.1-0.5,0.1-0.5
				c0,0,0.1-0.1,0.1,0c0,0,0.3,0,0.5,0.2c0.1,0.1,0.2,0.2,0.3,0.3c0.1,0.1,0.1,0.3,0.1,0.5C18,21.6,18.1,22.3,18,22.3
				C18.1,22.3,18.1,22.3,18,22.3C18.1,22.3,18,22.3,18,22.3z"/>
		</g>
		<g>
			<path fill="#FBB040" d="M5.4,6.4c0,0-0.8-0.4-1.6-0.8C3.7,5.4,3.5,5.3,3.3,5.2C3.2,5.1,3.1,4.9,3,4.8C2.8,4.5,2.8,4.2,2.8,4.2
				c0,0,0-0.1,0.1-0.1c0,0,0.3,0,0.6,0.1C3.7,4.2,3.8,4.3,4,4.4c0.1,0.1,0.3,0.3,0.4,0.5C5,5.6,5.5,6.3,5.4,6.4
				C5.5,6.3,5.5,6.4,5.4,6.4C5.5,6.4,5.5,6.4,5.4,6.4z"/>
		</g>
		<g>
			<path fill="#FBB040" d="M21.2,19.6c0,0-0.7-0.3-1.3-0.6c-0.2-0.1-0.3-0.1-0.5-0.2c-0.1-0.1-0.2-0.2-0.3-0.4
				c-0.1-0.3-0.1-0.6-0.1-0.6c0,0,0-0.1,0.1-0.1c0,0,0.3-0.1,0.6,0c0.1,0,0.3,0.1,0.4,0.2c0.1,0.1,0.2,0.3,0.3,0.4
				C20.9,18.9,21.3,19.6,21.2,19.6C21.3,19.6,21.3,19.6,21.2,19.6C21.3,19.7,21.3,19.7,21.2,19.6z"/>
		</g>
		<g>
			<path fill="#FBB040" d="M23.3,16c0,0-0.8,0-1.5-0.2c-0.2,0-0.4,0-0.6-0.1c-0.2-0.1-0.3-0.2-0.4-0.3c-0.2-0.2-0.3-0.5-0.3-0.5
				c0,0,0-0.1,0-0.1c0,0,0.3-0.1,0.6-0.2c0.2,0,0.3,0,0.5,0c0.2,0.1,0.3,0.2,0.5,0.3C22.8,15.5,23.4,15.9,23.3,16
				C23.4,16,23.4,16,23.3,16C23.4,16,23.4,16,23.3,16z"/>
		</g>
		<g>
			<path fill="#FBB040" d="M0.7,7.7c0,0,0.9,0.1,1.7,0.2C2.6,8,2.8,8,3,8c0.2,0.1,0.3,0.2,0.5,0.3c0.2,0.2,0.4,0.5,0.4,0.5
				c0,0,0,0.1,0,0.1c0,0-0.3,0.1-0.6,0.2C3,9.1,2.9,9.1,2.7,9C2.5,8.9,2.3,8.8,2.1,8.7C1.4,8.3,0.7,7.8,0.7,7.7
				C0.7,7.8,0.7,7.7,0.7,7.7C0.7,7.7,0.7,7.7,0.7,7.7z"/>
		</g>
		<g>
			<path fill="#FBB040" d="M3.2,11.9c0,0-0.8,0.2-1.6,0.4c-0.2,0-0.4,0.1-0.6,0.1c-0.2,0-0.4-0.1-0.5-0.1C0.2,12.1,0,11.9,0,11.9
				c0,0,0-0.1,0-0.1c0,0,0.2-0.2,0.5-0.4c0.1-0.1,0.3-0.1,0.5-0.1c0.2,0,0.4,0.1,0.6,0.1C2.4,11.6,3.2,11.8,3.2,11.9
				C3.2,11.8,3.2,11.8,3.2,11.9C3.2,11.9,3.2,11.9,3.2,11.9z"/>
		</g>
		<g>
			<path fill="#FBB040" d="M24.1,11.9c0,0-0.8,0.2-1.6,0.4c-0.2,0-0.4,0.1-0.6,0.1c-0.2,0-0.4-0.1-0.5-0.1c-0.3-0.1-0.5-0.4-0.5-0.4
				c0,0,0-0.1,0-0.1c0,0,0.2-0.2,0.5-0.4c0.1-0.1,0.3-0.1,0.5-0.1c0.2,0,0.4,0.1,0.6,0.1C23.3,11.6,24.1,11.8,24.1,11.9
				C24.1,11.8,24.1,11.8,24.1,11.9C24.1,11.9,24.1,11.9,24.1,11.9z"/>
		</g>
		<g>
			<path fill="#FBB040" d="M3.5,15c0,0-0.6,0.5-1.3,0.8c-0.2,0.1-0.3,0.2-0.5,0.3c-0.2,0.1-0.3,0.1-0.5,0C1,16.2,0.7,16,0.7,16
				c0,0,0-0.1,0-0.1c0,0,0.1-0.3,0.3-0.5c0.1-0.1,0.2-0.2,0.4-0.3c0.2,0,0.4,0,0.6-0.1C2.7,15,3.5,14.9,3.5,15
				C3.5,14.9,3.6,14.9,3.5,15C3.6,15,3.6,15,3.5,15z"/>
		</g>
		<g>
			<path fill="#FBB040" d="M23.4,7.8c0,0-0.7,0.5-1.4,0.9c-0.2,0.1-0.4,0.2-0.5,0.3c-0.2,0.1-0.4,0.1-0.5,0.1
				c-0.3,0-0.6-0.2-0.6-0.2c0,0,0-0.1,0-0.1c0,0,0.1-0.3,0.4-0.5c0.1-0.1,0.3-0.2,0.5-0.3C21.2,8,21.5,8,21.7,7.9
				C22.5,7.8,23.3,7.7,23.4,7.8C23.4,7.7,23.4,7.7,23.4,7.8C23.4,7.8,23.4,7.8,23.4,7.8z"/>
		</g>
		<g>
			<path fill="#FBB040" d="M18.1,1.5c0,0-0.3,0.9-0.6,1.7c-0.1,0.2-0.1,0.4-0.2,0.6c-0.1,0.2-0.2,0.3-0.4,0.4
				c-0.3,0.2-0.6,0.3-0.6,0.3c0,0-0.1,0-0.1,0c0,0-0.1-0.3,0-0.7c0-0.2,0.1-0.4,0.2-0.6c0.1-0.2,0.3-0.3,0.4-0.5
				C17.4,2.1,18,1.4,18.1,1.5C18,1.4,18.1,1.4,18.1,1.5C18.1,1.4,18.1,1.4,18.1,1.5z"/>
		</g>
		<g>
			<path fill="#FBB040" d="M7.4,20c0,0-0.2,0.7-0.4,1.4C7,21.5,7,21.7,6.9,21.8c-0.1,0.1-0.2,0.2-0.3,0.3c-0.2,0.2-0.5,0.2-0.5,0.2
				c0,0-0.1,0-0.1,0c0,0-0.1-0.3-0.1-0.5c0-0.1,0-0.3,0.1-0.4c0.1-0.1,0.2-0.2,0.4-0.4C6.8,20.4,7.3,19.9,7.4,20
				C7.4,19.9,7.4,19.9,7.4,20C7.4,19.9,7.4,19.9,7.4,20z"/>
		</g>
		<g>
			<path fill="#FBB040" d="M5,17.8c0,0-0.4,0.6-0.9,1.2c-0.1,0.1-0.2,0.3-0.3,0.4c-0.1,0.1-0.3,0.2-0.4,0.2c-0.3,0.1-0.6,0-0.6,0
				c0,0-0.1,0-0.1-0.1c0,0,0-0.3,0.1-0.6C3,18.9,3,18.7,3.2,18.6c0.1-0.1,0.3-0.2,0.5-0.2C4.3,18,5,17.7,5,17.8
				C5,17.7,5,17.7,5,17.8C5,17.8,5,17.8,5,17.8z"/>
		</g>
		<g>
			<path fill="#FBB040" d="M9.9,23.7c0,0-0.1-0.7-0.1-1.4c0-0.2,0-0.3,0-0.5c0-0.2,0.1-0.3,0.2-0.4c0.2-0.2,0.4-0.3,0.4-0.3
				c0,0,0.1,0,0.1,0c0,0,0.2,0.2,0.3,0.5c0,0.1,0.1,0.3,0,0.4c0,0.2-0.1,0.3-0.2,0.5C10.3,23.1,10,23.7,9.9,23.7
				C10,23.8,10,23.8,9.9,23.7C9.9,23.7,9.9,23.7,9.9,23.7z"/>
		</g>
		<g>
			<path fill="#FBB040" d="M14.2,0c0,0,0.1,0.9,0,1.8c0,0.2,0,0.5,0,0.7c0,0.2-0.1,0.4-0.2,0.5c-0.2,0.3-0.4,0.5-0.4,0.5
				c0,0-0.1,0-0.1,0c0,0,0,0,0,0c0,0-0.2-0.3-0.2-0.6c0-0.2-0.1-0.4,0-0.6c0.1-0.2,0.2-0.4,0.2-0.6C13.7,0.8,14.1,0,14.2,0
				C14.1,0,14.1,0,14.2,0C14.2,0,14.2,0,14.2,0z"/>
		</g>
	</g>
</g>
<circle fill="#F9CD41" cx="12" cy="12.4" r="7.8"/>
<circle fill="#FBB040" cx="12" cy="12.4" r="7.4"/>
</svg>
